<?xml version="1.0" standalone="no"?>
<!DOCTYPE svg PUBLIC "-//W3C//DTD SVG 20010904//EN"
 "http://www.w3.org/TR/2001/REC-SVG-20010904/DTD/svg10.dtd">
<svg version="1.0" xmlns="http://www.w3.org/2000/svg"
 width="512.000000pt" height="512.000000pt" viewBox="0 0 512.000000 512.000000"
 preserveAspectRatio="xMidYMid meet">

<g transform="translate(0.000000,512.000000) scale(0.100000,-0.100000)"
fill="#000000" stroke="none">
<path d="M683 4945 c-176 -48 -317 -195 -353 -370 -7 -35 -10 -137 -8 -277 3
-214 4 -225 28 -273 31 -63 94 -126 148 -150 23 -11 42 -24 42 -29 0 -6 -21
-78 -45 -161 -131 -432 -233 -938 -284 -1400 -34 -306 -44 -489 -45 -795 -1
-262 1 -301 17 -348 17 -46 21 -52 40 -46 18 5 116 52 124 58 1 1 -4 24 -12
51 -39 128 -1 841 71 1335 58 398 168 881 280 1223 l26 77 875 0 c784 0 875
-2 869 -15 -30 -79 -168 -595 -178 -664 -3 -23 3 -26 71 -43 40 -10 75 -17 78
-14 2 2 25 84 49 183 38 153 105 390 145 515 l12 36 131 4 c123 3 134 5 184
32 60 34 111 85 144 148 21 39 23 58 26 226 5 251 26 232 -261 232 l-219 0 7
33 c18 91 39 133 94 188 68 68 132 93 237 93 121 -1 232 -70 281 -174 20 -45
182 -633 204 -742 7 -32 16 -58 21 -58 27 0 141 36 145 46 11 29 -190 762
-231 839 -63 120 -190 216 -324 244 -37 8 -397 11 -1195 10 -950 0 -1151 -3
-1194 -14z m1882 -195 c-72 -108 -79 -139 -83 -401 -3 -215 -2 -240 16 -292
l20 -57 -955 0 c-1063 0 -996 -4 -1051 68 l-27 35 0 231 0 231 27 52 c46 87
126 152 213 174 17 4 445 7 952 8 l922 1 -34 -50z m395 -523 c0 -119 -23 -171
-90 -204 -24 -13 -56 -23 -70 -23 -14 0 -46 10 -70 23 -67 33 -90 85 -90 204
l0 93 160 0 160 0 0 -93z"/>
<path d="M4343 4680 c-35 -17 -77 -49 -95 -70 -18 -21 -159 -245 -313 -497
-153 -252 -300 -490 -325 -529 -26 -39 -52 -84 -58 -100 -10 -23 -26 -34 -79
-54 -194 -72 -453 -257 -600 -428 -125 -146 -209 -286 -367 -615 l-95 -197 70
-36 c39 -19 72 -34 74 -32 1 2 62 122 135 268 73 146 158 303 189 350 122 184
342 378 550 484 102 52 109 54 114 35 4 -15 -14 -39 -80 -102 -142 -136 -270
-297 -383 -482 -45 -72 -320 -601 -320 -614 0 -12 133 -72 141 -64 5 5 67 122
138 259 204 396 285 517 486 723 l123 126 28 -15 c16 -8 30 -15 32 -16 2 -1
-24 -51 -56 -110 -138 -255 -482 -911 -482 -921 0 -10 109 -73 128 -73 5 0
115 197 243 438 128 240 253 477 279 525 45 84 48 87 53 58 7 -34 -8 -229 -24
-311 -33 -172 -86 -312 -190 -501 -38 -70 -69 -131 -69 -136 0 -5 31 -25 68
-45 l68 -37 81 152 c169 314 224 518 225 832 l1 160 36 41 c33 38 637 1019
692 1124 20 37 24 60 24 130 0 99 -23 158 -86 221 -61 61 -112 82 -209 87 -80
3 -89 2 -147 -28z m201 -144 c42 -17 77 -66 83 -116 4 -30 -1 -52 -21 -92 -14
-29 -167 -282 -339 -563 -346 -565 -342 -560 -433 -553 -61 5 -105 34 -129 84
-30 63 -17 99 109 308 430 708 552 901 585 923 39 26 95 30 145 9z"/>
<path d="M2445 2944 c-803 -87 -1277 -242 -1432 -467 -47 -70 -56 -114 -49
-242 9 -162 42 -290 151 -570 53 -137 97 -251 99 -252 2 -2 134 45 147 52 4 3
-35 112 -85 242 -51 131 -97 254 -102 273 l-11 35 103 -51 c245 -123 596 -207
1094 -261 208 -22 936 -26 1150 -5 498 48 893 140 1141 264 l106 53 -13 -40
c-16 -54 -51 -146 -189 -500 -114 -292 -157 -392 -196 -447 -10 -14 -19 -30
-19 -36 0 -5 28 -29 62 -52 l61 -43 24 29 c45 57 94 164 228 509 210 538 230
603 241 815 6 93 4 112 -16 164 -43 113 -183 222 -399 309 -108 43 -327 109
-350 105 -16 -3 -55 -139 -43 -149 4 -3 48 -16 97 -29 271 -68 492 -186 540
-286 39 -82 -31 -166 -210 -254 l-100 -49 -17 32 c-48 94 -245 216 -405 251
l-32 7 -21 -72 c-12 -39 -18 -75 -13 -79 4 -4 33 -15 63 -25 89 -28 196 -84
236 -123 l37 -36 -32 -14 c-50 -20 -229 -61 -386 -87 -681 -116 -1565 -93
-2155 55 -162 40 -160 39 -116 83 71 72 277 149 515 193 75 14 147 28 159 30
22 5 23 8 17 57 -13 110 -12 108 -53 102 -120 -19 -350 -71 -427 -97 -189 -61
-338 -156 -383 -244 l-17 -33 -100 49 c-179 88 -249 172 -210 254 81 170 549
330 1175 401 74 8 158 15 185 15 28 0 55 4 60 8 6 4 9 40 7 85 l-4 77 -41 -1
c-23 -1 -55 -3 -72 -5z"/>
<path d="M908 1264 c-114 -27 -233 -103 -304 -192 l-43 -55 -88 -1 c-75 -1
-96 -5 -145 -29 -107 -53 -163 -144 -163 -267 0 -123 56 -214 163 -267 49 -24
69 -28 145 -28 l88 -1 42 -52 c70 -86 149 -141 266 -186 56 -21 56 -21 1291
-24 870 -2 1255 1 1302 8 123 21 252 98 333 200 l44 54 88 1 c76 0 96 4 145
28 64 32 111 80 142 146 16 36 21 64 20 131 -1 103 -20 146 -94 213 -64 57
-121 77 -225 77 -78 0 -81 1 -98 29 -27 46 -127 133 -193 168 -124 66 -51 63
-1419 62 -1022 -1 -1250 -3 -1297 -15z m-166 -435 c267 -25 288 -32 288 -109
0 -42 -9 -59 -39 -75 -28 -14 -419 -55 -527 -55 -52 0 -59 3 -95 39 -35 35
-39 44 -39 91 0 47 4 56 39 91 36 36 43 39 95 39 31 0 156 -9 278 -21z"/>
</g>
</svg>
