<?xml version="1.0" encoding="UTF-8"?>
<svg version="1.1" xmlns="http://www.w3.org/2000/svg" width="512" height="512">
<path d="M0 0 C1.15745728 -0.00478363 2.31491455 -0.00956726 3.50744629 -0.01449585 C5.95175538 -0.0178945 8.39610995 -0.00869475 10.84033203 0.01220703 C14.58078408 0.03896973 18.31823499 0.01245445 22.05859375 -0.01953125 C24.43490245 -0.01622715 26.81120929 -0.00982092 29.1875 0 C30.3053186 -0.01012115 31.42313721 -0.02024231 32.5748291 -0.03067017 C40.33316738 0.08638856 40.33316738 0.08638856 44.27539062 3.08056641 C47.22488307 7.27115838 47.9544928 10.5936536 47.09375 15.6640625 C45.40437038 19.70526425 43.20374805 23.40306789 40.96875 27.1640625 C40.33710938 28.25847656 39.70546875 29.35289063 39.0546875 30.48046875 C37.08457941 33.88515951 35.09122302 37.27536878 33.09375 40.6640625 C31.90774127 42.6946629 30.72280362 44.72588936 29.5390625 46.7578125 C27.81181541 49.72076196 26.08286354 52.68261544 24.34716797 55.640625 C20.17185831 62.76574267 16.10962205 69.94804241 12.09375 77.1640625 C7.51802773 85.38606346 2.85786335 93.5497661 -1.90625 101.6640625 C-11.19964872 117.49924908 -20.1417563 133.53068254 -28.90625 149.6640625 C-26.52253031 149.95609465 -26.52253031 149.95609465 -23.90625 149.6640625 C-22.28995186 148.24306343 -22.28995186 148.24306343 -21.13671875 146.16796875 C-20.40521606 145.00841675 -20.40521606 145.00841675 -19.65893555 143.82543945 C-19.14242432 142.96781006 -18.62591309 142.11018066 -18.09375 141.2265625 C-16.93762329 139.37752707 -15.78136745 137.52857238 -14.625 135.6796875 C-14.01914062 134.69677734 -13.41328125 133.71386719 -12.7890625 132.70117188 C-10.26772563 128.63407765 -7.68114739 124.6104967 -5.09301758 120.58569336 C-3.06003808 117.42413592 -1.03486003 114.25770463 0.98828125 111.08984375 C5.01980634 104.77892327 9.05629718 98.47119179 13.09375 92.1640625 C14.42710644 90.08074395 15.76043975 87.99741061 17.09375 85.9140625 C25.09375 73.4140625 33.09375 60.9140625 41.09375 48.4140625 C41.75463623 47.38112061 42.41552246 46.34817871 43.09643555 45.28393555 C44.41968865 43.21696923 45.74405634 41.150716 47.06958008 39.08520508 C50.19256746 34.21580775 53.30385444 29.34003318 56.37545776 24.43807983 C57.46825884 22.69525392 58.56462626 20.95472439 59.66210938 19.21484375 C61.04167729 17.02533595 62.41444247 14.83152223 63.77929688 12.6328125 C64.40255859 11.64667969 65.02582031 10.66054687 65.66796875 9.64453125 C66.48140747 8.34358521 66.48140747 8.34358521 67.3112793 7.01635742 C69.98676221 3.48557014 71.91994825 0.99273047 76.51152039 0.29850769 C79.60896385 0.13293379 82.67943798 0.10989608 85.78125 0.1328125 C86.91651123 0.1289856 88.05177246 0.12515869 89.22143555 0.12121582 C91.61866138 0.11849713 94.01591689 0.12585519 96.41308594 0.14257812 C100.08075142 0.16398663 103.74645789 0.14277315 107.4140625 0.1171875 C109.74479599 0.11983078 112.07552826 0.12495576 114.40625 0.1328125 C116.05016724 0.12066711 116.05016724 0.12066711 117.72729492 0.10827637 C125.32629651 0.20179243 125.32629651 0.20179243 129.26171875 2.57226562 C132.46448593 6.22915651 132.57511229 9.1633026 132.51806641 13.90917969 C131.74713219 18.91448559 128.81800167 22.36303789 125.78125 26.2890625 C124.47973589 28.05544983 123.17896217 29.82238292 121.87890625 31.58984375 C121.23195801 32.45303223 120.58500977 33.3162207 119.91845703 34.20556641 C117.42372211 37.56681616 115.06553483 41.01125044 112.71875 44.4765625 C108.21157903 51.06311853 103.65545249 57.6151943 99.09375 64.1640625 C94.57522544 70.65148549 90.06398657 77.1432587 85.59375 83.6640625 C80.43176536 91.19393 75.21379103 98.68445052 69.99609375 106.17578125 C66.17803476 111.6601658 62.37222717 117.15233892 58.59375 122.6640625 C53.43980717 130.18219929 48.23036833 137.66133665 43.02026367 145.140625 C38.53226165 151.58658841 34.06420733 158.04561035 29.63085938 164.52929688 C26.8354758 168.61137241 23.97961889 172.64537474 21.09375 176.6640625 C25.71375 179.3040625 30.33375 181.9440625 35.09375 184.6640625 C37.37716719 182.38064531 39.21772258 180.25476704 41.09375 177.6640625 C50.53620899 180.94914386 58.57090905 188.87929028 65.80859375 195.56640625 C67.7978642 197.39245451 69.832265 199.1239633 71.90625 200.8515625 C97.79955627 223.57319872 129.36625602 264.81291281 132.31347656 300.31054688 C133.14326865 320.10004227 130.48397689 336.72268546 116.78125 351.9140625 C109.7562283 359.51662709 101.89413031 365.15434563 92.60546875 369.6875 C91.73984818 370.11914459 90.8742276 370.55078918 89.9823761 370.99551392 C88.17216025 371.89579355 86.35956076 372.79129533 84.54467773 373.68212891 C81.76575717 375.04666999 78.99475251 376.42633364 76.22460938 377.80859375 C74.45616694 378.68577896 72.68730151 379.56211202 70.91796875 380.4375 C70.09189621 380.84785492 69.26582367 381.25820984 68.41471863 381.68099976 C67.6432399 382.05874542 66.87176117 382.43649109 66.0769043 382.82568359 C65.40233688 383.1576474 64.72776947 383.48961121 64.03276062 383.83163452 C59.90095615 385.60544102 56.27916494 385.7902802 51.79077148 385.79345703 C50.51100937 385.79660919 49.23124725 385.79976135 47.91270447 385.80300903 C46.51341722 385.80121621 45.11413028 385.79916452 43.71484375 385.796875 C42.26392094 385.79754987 40.81299823 385.79852141 39.36207581 385.79977417 C36.31144135 385.80124956 33.26083613 385.79910634 30.21020508 385.79443359 C26.35752669 385.78881159 22.50491847 385.7920644 18.65224266 385.79787064 C-20.7603718 385.84846207 -20.7603718 385.84846207 -34.90625 383.6640625 C-34.63474121 384.16107666 -34.36323242 384.65809082 -34.08349609 385.17016602 C-22.01042573 407.38246961 -12.25485611 428.80340754 -18.46875 454.5390625 C-26.04390002 479.02678704 -43.97376587 491.91437464 -65.6484375 503.515625 C-86.86202545 514.70034701 -106.54835001 515.09161189 -130.0703125 514.14355469 C-134.05609134 514.00289561 -138.04107868 513.94705415 -142.02885628 513.89488792 C-176.6585507 513.43724901 -207.1569456 508.15692772 -240.03125 497.2265625 C-242.17511022 496.51954652 -244.31915664 495.81309494 -246.46337891 495.10717773 C-252.94771406 492.96960753 -259.42728417 490.81784139 -265.90625 488.6640625 C-267.87952903 488.00902945 -269.85283548 487.35407898 -271.82617188 486.69921875 C-279.89911585 484.01901843 -287.96979918 481.33234037 -296.03486633 478.62852478 C-296.85738388 478.35279129 -297.67990143 478.0770578 -298.52734375 477.79296875 C-299.33169357 477.52331802 -300.1360434 477.2536673 -300.96476746 476.97584534 C-306.00992939 475.28810456 -311.06509184 473.63472588 -316.12890625 472.00390625 C-317.36398926 471.60292725 -318.59907227 471.20194824 -319.87158203 470.78881836 C-322.07148288 470.07619403 -324.27400625 469.37157418 -326.47998047 468.67797852 C-346.66799852 462.10548843 -363.08371248 448.5434609 -372.90625 429.6640625 C-378.03936461 418.28761764 -380.29925557 407.98186177 -380.28125 395.5390625 C-380.28036377 394.4361084 -380.27947754 393.3331543 -380.27856445 392.19677734 C-380.15167385 383.41234029 -378.80636707 375.98524645 -375.90625 367.6640625 C-374.02627015 362.25648727 -374.02627015 362.25648727 -372.90625 356.6640625 C-374.44208866 353.86894509 -374.44208866 353.86894509 -376.90625 351.6640625 C-380.51425802 344.41327048 -380.3892072 337.4646319 -380.34375 329.4765625 C-380.36373047 328.21908203 -380.38371094 326.96160156 -380.40429688 325.66601562 C-380.40365234 324.45494141 -380.40300781 323.24386719 -380.40234375 321.99609375 C-380.40419678 320.90014893 -380.4060498 319.8042041 -380.40795898 318.67504883 C-379.4636586 313.00786799 -375.28723466 309.95488645 -370.96875 306.5390625 C-370.00066406 305.76304687 -369.03257812 304.98703125 -368.03515625 304.1875 C-367.52484863 303.77854492 -367.01454102 303.36958984 -366.48876953 302.94824219 C-363.75692456 300.73141026 -361.08426566 298.44536455 -358.40625 296.1640625 C-353.58912688 292.07391913 -348.74883415 288.01731786 -343.83203125 284.046875 C-341.67975511 282.29401993 -339.55967391 280.52042871 -337.44921875 278.71875 C-315.96304759 260.6150835 -292.78904146 254.85113718 -264.90625 256.6640625 C-253.47569631 258.03607629 -241.80082413 259.86649066 -230.90625 263.6640625 C-230.89207031 262.99503906 -230.87789062 262.32601563 -230.86328125 261.63671875 C-230.49528886 254.22714217 -228.94840588 247.65650918 -226.72192383 240.62915039 C-224.07397352 233.60494379 -224.07397352 233.60494379 -224.83203125 226.5390625 C-225.28964844 225.9203125 -225.74726563 225.3015625 -226.21875 224.6640625 C-231.37662429 217.57013797 -231.35992342 210.25860958 -231.46875 201.7890625 C-231.54319336 200.07009766 -231.54319336 200.07009766 -231.61914062 198.31640625 C-231.68819449 192.60137715 -231.56603907 188.64054906 -227.76171875 184.18359375 C-226.50951198 182.97531015 -225.22505269 181.79928518 -223.90625 180.6640625 C-223.37265869 180.17067383 -222.83906738 179.67728516 -222.28930664 179.16894531 C-220.77984407 177.80580943 -219.23276253 176.51127333 -217.65625 175.2265625 C-217.09615234 174.76121094 -216.53605469 174.29585937 -215.95898438 173.81640625 C-214.2805702 172.4250142 -212.59487338 171.04303736 -210.90625 169.6640625 C-209.97296875 168.89964844 -209.0396875 168.13523438 -208.078125 167.34765625 C-206.29013192 165.88641629 -204.49974484 164.428101 -202.70703125 162.97265625 C-200.72450925 161.33852724 -198.76680173 159.69174147 -196.82421875 158.01171875 C-173.14155362 137.54307801 -150.8493275 126.65167567 -118.78759766 128.31982422 C-107.76561731 129.29736808 -96.89735912 131.66237387 -86.09643555 133.99975586 C-83.04227395 134.63573762 -79.9867358 135.17329099 -76.90625 135.6640625 C-69.30067055 119.54479903 -61.7509616 103.40407643 -54.40625 87.1640625 C-48.89263397 74.97353589 -43.26989081 62.83952544 -37.55322266 50.74291992 C-34.22764797 43.69325941 -30.97301227 36.61794496 -27.8046875 29.49609375 C-27.12438283 27.97329216 -26.44404464 26.45050555 -25.76367188 24.92773438 C-24.46835213 22.02691234 -23.1882151 19.12000655 -21.91601562 16.20898438 C-21.32736357 14.88777982 -20.73819763 13.56680406 -20.1484375 12.24609375 C-19.6416748 11.09343018 -19.13491211 9.9407666 -18.61279297 8.75317383 C-13.82747944 0.0910033 -9.27786164 -0.08400529 0 0 Z " fill="#010100" transform="translate(379.90625,-0.6640625)"/>
<path d="M0 0 C1.36407503 0.29273654 2.72817128 0.58537422 4.09228516 0.87792969 C22.31127846 4.80677548 40.30282358 9.10094119 58 15 C56.64813764 18.66898891 54.99013337 21.79837899 52.8671875 25.078125 C52.23425781 26.06103516 51.60132813 27.04394531 50.94921875 28.05664062 C50.26472656 29.11044922 49.58023438 30.16425781 48.875 31.25 C47.78658294 32.93773532 46.69817219 34.62547476 45.61016846 36.31347656 C44.48325416 38.0607259 43.35454346 39.80680469 42.22558594 41.55273438 C38.79838155 46.85651993 35.40071724 52.17921014 32 57.5 C30.66941905 59.57952192 29.33868933 61.65894867 28.0078125 63.73828125 C27.34813477 64.76904785 26.68845703 65.79981445 26.00878906 66.86181641 C23.98291836 70.02668539 21.95638128 73.19112679 19.9296875 76.35546875 C16.60676535 81.54399598 13.2859481 86.73386439 9.96679688 91.92480469 C8.63536656 94.00656936 7.30331722 96.08793822 5.97070312 98.16894531 C4.02019084 101.21555865 2.07228137 104.26382087 0.125 107.3125 C-0.4642627 108.23184326 -1.05352539 109.15118652 -1.66064453 110.09838867 C-2.20317871 110.94892822 -2.74571289 111.79946777 -3.3046875 112.67578125 C-3.77890137 113.41739502 -4.25311523 114.15900879 -4.74169922 114.9230957 C-7.45821236 119.35984318 -7.45821236 119.35984318 -7.875 124.5 C-6.73104252 129.07582992 -4.66325486 130.90480165 -0.77685547 133.46386719 C1.84585872 134.91473035 4.47900308 136.34200443 7.125 137.75 C8.02476562 138.25660156 8.92453125 138.76320313 9.8515625 139.28515625 C15.84129632 142.47795976 21.17906029 144.50740285 28 143 C33.39977777 139.28068404 36.94836662 132.56802426 40.625 127.1875 C41.33720703 126.15431641 42.04941406 125.12113281 42.78320312 124.05664062 C44.86045713 121.04115084 46.93103875 118.02118323 49 115 C49.97618913 113.57917049 50.95270088 112.15856251 51.9296875 110.73828125 C53.21426379 108.8705054 54.49834819 107.00240905 55.78027344 105.1328125 C59.78357595 99.29799169 63.82937463 93.4930248 67.875 87.6875 C72.82438137 80.58446889 77.74795914 73.46539308 82.625 66.3125 C92.56356294 51.7443631 102.70943888 37.32142608 113 23 C117.42323682 23.58265272 120.5155864 25.26766211 124.3125 27.5625 C125.91544922 28.52349609 125.91544922 28.52349609 127.55078125 29.50390625 C128.35902344 29.99761719 129.16726563 30.49132812 130 31 C128.87548273 33.9719385 127.77706209 36.33440687 126 39 C126 39.99 126 40.98 126 42 C128.3454867 44.06934694 128.3454867 44.06934694 131.375 46.125 C136.44272797 49.77033959 141.11568833 53.65356108 145.70703125 57.89453125 C147.74089454 59.76208204 149.82147023 61.5398422 151.9375 63.3125 C172.97768346 81.72795233 188.88804368 107.4353274 200.0625 132.8125 C200.49296631 133.78968994 200.49296631 133.78968994 200.93212891 134.78662109 C205.3054115 145.06478061 206.36682469 160.07496494 202.4375 170.6875 C195.6914704 184.13221863 184.8673306 191.56759796 171.6875 198 C170.49630978 198.60200459 169.30555128 199.20486423 168.11523438 199.80859375 C159.38856 204.12952 159.38856 204.12952 156 203 C154.70500879 200.44972249 153.58323535 197.95208557 152.5 195.3125 C149.264269 187.73784187 145.79443831 180.31203157 142.125 172.9375 C141.64869141 171.9678833 141.17238281 170.9982666 140.68164062 169.99926758 C140.23240234 169.10103271 139.78316406 168.20279785 139.3203125 167.27734375 C138.92086426 166.47546631 138.52141602 165.67358887 138.10986328 164.84741211 C137.12935148 162.84117571 137.12935148 162.84117571 135 162 C133.21440666 162.70817028 133.21440666 162.70817028 131.3046875 163.87109375 C130.58925781 164.28037109 129.87382812 164.68964844 129.13671875 165.11132812 C128.39035156 165.54896484 127.64398438 165.98660156 126.875 166.4375 C126.12089844 166.87126953 125.36679687 167.30503906 124.58984375 167.75195312 C122.72242866 168.82748966 120.86067303 169.91284139 119 171 C120.73763298 176.96430781 123.62762183 182.06771026 126.63476562 187.45898438 C129.37764267 192.49291679 131.36251143 197.50703613 133 203 C117.18961122 201.96888769 105.13952198 188.98915893 95.12890625 177.93359375 C94.00032061 176.64340925 92.87791002 175.34779723 91.76171875 174.046875 C88.24882928 169.96538037 84.61646985 165.98959769 81 162 C80.55043945 161.50387207 80.10087891 161.00774414 79.63769531 160.49658203 C74.22241776 154.52853393 68.76172701 148.63767069 63 143 C61.33212517 141.33454238 59.66525484 139.6680773 58 138 C55.79680067 140.06867563 53.61327025 142.15281794 51.4375 144.25 C50.80908203 144.83652344 50.18066406 145.42304688 49.53320312 146.02734375 C48.94345703 146.60097656 48.35371094 147.17460937 47.74609375 147.765625 C47.19622803 148.28930664 46.6463623 148.81298828 46.07983398 149.35253906 C44.79937191 150.94830541 44.79937191 150.94830541 45.11889648 152.9765625 C46.17933008 155.41182813 47.44028955 156.76609592 49.3515625 158.609375 C50.03863281 159.28226563 50.72570312 159.95515625 51.43359375 160.6484375 C52.15675781 161.34195313 52.87992188 162.03546875 53.625 162.75 C58.40724934 167.38252883 63.02055872 172.050635 67.36083984 177.10253906 C69.83621451 179.96798618 72.41834244 182.73057775 75 185.5 C78.30557606 189.05918117 81.58234489 192.62901115 84.75 196.3125 C87.81958045 199.87472916 91.12128721 203.16124813 94.49609375 206.43359375 C96 208 96 208 96 209 C82.1694497 209.39046725 68.92094052 208.81735582 55.28710938 206.38818359 C53.22675738 206.03848679 51.15243438 205.77365481 49.078125 205.51953125 C44.44768501 204.81002835 41.2046976 204.22668113 37.859375 200.8203125 C36.54479164 198.97668949 35.28875247 197.09028875 34.0859375 195.171875 C31.70800114 191.55598676 29.02278766 188.51630416 26.0625 185.375 C25.54276611 184.82295898 25.02303223 184.27091797 24.48754883 183.70214844 C23.46586643 182.62412503 22.44128445 181.54884095 21.41357422 180.4765625 C20.17346245 179.18119186 18.94691888 177.87286 17.72265625 176.5625 C-5.303792 152.54981654 -35.65907337 138.71498722 -66.93505859 128.95947266 C-69.63778484 128.1133906 -72.33013548 127.24279945 -75.01953125 126.35546875 C-88.1971711 122.03911226 -101.59139612 118.51973889 -115 115 C-115.24528232 107.34837025 -115.20376788 100.51761611 -112.6875 93.25 C-112.47416016 92.55390625 -112.26082031 91.8578125 -112.04101562 91.140625 C-111.38671875 89.140625 -111.38671875 89.140625 -110 86 C-106.52191785 84.84063928 -105.1414377 85.20781197 -101.609375 86.00390625 C-99.97391724 86.36826782 -99.97391724 86.36826782 -98.30541992 86.73999023 C-97.13213135 87.01141846 -95.95884277 87.28284668 -94.75 87.5625 C-93.53868408 87.83843994 -92.32736816 88.11437988 -91.0793457 88.39868164 C-64.11118323 94.60744603 -38.076911 102.77662042 -12 112 C-11.85957275 111.24823486 -11.71914551 110.49646973 -11.57446289 109.72192383 C-10.843477 106.2583617 -9.65606769 103.00186758 -8.4375 99.6875 C-8.08655273 98.71973633 -8.08655273 98.71973633 -7.72851562 97.73242188 C-7.15552993 96.15378781 -6.57820536 94.57672974 -6 93 C-12.51449628 89.95307502 -19.11263171 87.44733006 -25.9375 85.1875 C-26.98035156 84.84203125 -28.02320313 84.4965625 -29.09765625 84.140625 C-49.01008452 77.65364061 -69.42525862 72.83234293 -89.7421875 67.796875 C-90.96284912 67.49322021 -92.18351074 67.18956543 -93.44116211 66.87670898 C-95.79093715 66.29784899 -98.14331239 65.72943176 -100.49829102 65.17211914 C-101.57006592 64.91551514 -102.64184082 64.65891113 -103.74609375 64.39453125 C-104.68638428 64.17385986 -105.6266748 63.95318848 -106.59545898 63.72583008 C-109.72028861 62.78257508 -111.77700924 61.37630046 -114 59 C-115.35439668 56.29120665 -115.06501451 53.99066732 -115 51 C-105.9889523 52.34238138 -97.21203093 54.29994751 -88.375 56.5 C-80.27796335 58.5033041 -72.20101234 60.46692251 -64 62 C-63.8669043 61.24750977 -63.73380859 60.49501953 -63.59667969 59.71972656 C-62.54134421 53.77445154 -61.35066995 47.88506194 -60 42 C-73.29210844 38.80632562 -86.63465319 35.87045762 -100 33 C-100 32.01 -100 31.02 -100 30 C-97.84331005 27.87351579 -95.69414579 25.9354937 -93.375 24 C-92.69493896 23.42548096 -92.01487793 22.85096191 -91.31420898 22.2590332 C-89.90191313 21.07222034 -88.48542997 19.89037365 -87.06494141 18.71337891 C-85.18054598 17.14980748 -83.3144458 15.56678334 -81.44921875 13.98046875 C-56.66166324 -6.69302873 -30.55130643 -6.64783881 0 0 Z " fill="#FE7D5E" transform="translate(286,154)"/>
<path d="M0 0 C3.61420839 0.76211321 7.23748013 1.40816594 10.87597656 2.04394531 C27.11641746 5.06027064 43.16218061 9.170122 58.94580078 14.02392578 C61.44366485 14.77777143 63.95780251 15.47137884 66.47070312 16.1730957 C93.40647857 23.81603844 121.1182153 32.29991514 142.87597656 50.60644531 C143.44396973 51.07727539 144.01196289 51.54810547 144.59716797 52.03320312 C155.49353792 61.0771611 165.07212566 70.47345582 173.87597656 81.60644531 C174.68164062 82.60675781 175.48730469 83.60707031 176.31738281 84.63769531 C192.96602993 105.53928825 212.57482508 133.78206122 210.16259766 161.48925781 C208.47221131 173.9756551 201.25861312 183.35523926 191.52441406 190.78710938 C186.77825289 194.04747009 181.66961613 196.5290456 176.50097656 199.04394531 C175.42203125 199.58470703 174.34308594 200.12546875 173.23144531 200.68261719 C165.28457723 204.60644531 165.28457723 204.60644531 161.87597656 204.60644531 C161.66618164 204.09073975 161.45638672 203.57503418 161.24023438 203.04370117 C149.58825913 174.62249789 135.04684706 148.62115576 115.87597656 124.60644531 C115.06128906 123.57777344 114.24660156 122.54910156 113.40722656 121.48925781 C111.26662756 118.8285837 109.08171682 116.21322925 106.87597656 113.60644531 C105.7815625 112.25679687 105.7815625 112.25679687 104.66503906 110.87988281 C78.59494143 80.13275769 31.75415203 68.78083294 -5.12402344 56.60644531 C-6.21924316 56.24421875 -7.31446289 55.88199219 -8.44287109 55.50878906 C-36.72412074 46.2669929 -65.97238954 39.46376097 -95.12402344 33.60644531 C-95.12402344 32.61644531 -95.12402344 31.62644531 -95.12402344 30.60644531 C-93.20972005 28.74915096 -91.31863628 27.08645211 -89.24902344 25.41894531 C-88.65476562 24.92990723 -88.06050781 24.44086914 -87.44824219 23.93701172 C-86.24100411 22.94623273 -85.03039861 21.95954217 -83.81640625 20.97705078 C-82.36626367 19.80262775 -80.92754948 18.6141175 -79.49121094 17.42285156 C-53.725322 -3.7085788 -32.25346429 -6.96053459 0 0 Z " fill="#FE7D5E" transform="translate(131.1240234375,281.3935546875)"/>
<path d="M0 0 C9.80442462 1.30425832 19.07655167 4.32522229 28.49267578 7.23291016 C31.48533069 8.14848189 34.48751913 9.02762261 37.49316406 9.89941406 C116.97216852 32.96670417 116.97216852 32.96670417 132 47 C133.48220591 48.31347903 134.96533394 49.62591798 136.44921875 50.9375 C142.32041561 56.21584865 147.90772675 61.75654316 153.47827148 67.34790039 C155.19207233 69.0670867 156.91119082 70.78082583 158.63085938 72.49414062 C163.757889 77.61802375 168.80938848 82.74941689 173.5168457 88.26733398 C175.92995603 91.08640296 178.47030307 93.78586783 181 96.5 C185.41767417 101.26324421 189.75888366 106.07821067 194 111 C195.20643437 112.39747495 196.41478843 113.79329481 197.625 115.1875 C198.15351563 115.79980469 198.68203125 116.41210938 199.2265625 117.04296875 C201.40399716 119.44582066 203.69370784 121.7212574 206 124 C176.61420357 124.52631277 151.00309799 119.31113521 123.1875 110 C121.1150871 109.31244937 119.04240601 108.62570666 116.96948242 107.93969727 C113.63119881 106.83485006 110.29316169 105.72930891 106.95619202 104.62049866 C98.39993642 101.78066803 89.82697652 98.99587872 81.24670219 96.22965622 C76.90736862 94.82937019 72.57012202 93.42263137 68.2328577 92.01595116 C64.69438528 90.8688536 61.15481341 89.72543855 57.61239624 88.59057617 C54.25103289 87.51345959 50.89338103 86.42542548 47.53797531 85.32989693 C45.72524449 84.74106208 43.90891171 84.16335081 42.09243774 83.58616638 C25.83734295 78.25162814 10.46959648 70.62425844 1.2421875 55.52734375 C-7.71732886 37.29839066 -7.35459851 21.77210905 -1 3 C-0.67 2.01 -0.34 1.02 0 0 Z " fill="#DCD7CE" transform="translate(27,367)"/>
<path d="M0 0 C1.36407503 0.29273654 2.72817128 0.58537422 4.09228516 0.87792969 C22.31127846 4.80677548 40.30282358 9.10094119 58 15 C56.64813764 18.66898891 54.99013337 21.79837899 52.8671875 25.078125 C52.23425781 26.06103516 51.60132813 27.04394531 50.94921875 28.05664062 C50.26472656 29.11044922 49.58023438 30.16425781 48.875 31.25 C47.78658294 32.93773532 46.69817219 34.62547476 45.61016846 36.31347656 C44.48325416 38.0607259 43.35454346 39.80680469 42.22558594 41.55273438 C38.79838181 46.85651952 35.40064282 52.17916298 32 57.5 C27.91036483 63.89327127 23.81807615 70.28481238 19.71875 76.671875 C9.71945799 92.24833253 9.71945799 92.24833253 0 108 C-3.3 107.01 -6.6 106.02 -10 105 C-8.68 101.04 -7.36 97.08 -6 93 C-12.53805727 89.98192034 -19.10339126 87.45038973 -25.9375 85.1875 C-26.98035156 84.84203125 -28.02320313 84.4965625 -29.09765625 84.140625 C-49.01008452 77.65364061 -69.42525862 72.83234293 -89.7421875 67.796875 C-90.96284912 67.49322021 -92.18351074 67.18956543 -93.44116211 66.87670898 C-95.79093715 66.29784899 -98.14331239 65.72943176 -100.49829102 65.17211914 C-101.57006592 64.91551514 -102.64184082 64.65891113 -103.74609375 64.39453125 C-104.68638428 64.17385986 -105.6266748 63.95318848 -106.59545898 63.72583008 C-109.72028861 62.78257508 -111.77700924 61.37630046 -114 59 C-115.35439668 56.29120665 -115.06501451 53.99066732 -115 51 C-105.9889523 52.34238138 -97.21203093 54.29994751 -88.375 56.5 C-80.27796335 58.5033041 -72.20101234 60.46692251 -64 62 C-63.8669043 61.24750977 -63.73380859 60.49501953 -63.59667969 59.71972656 C-62.54134421 53.77445154 -61.35066995 47.88506194 -60 42 C-73.29210844 38.80632562 -86.63465319 35.87045762 -100 33 C-100 32.01 -100 31.02 -100 30 C-97.84331005 27.87351579 -95.69414579 25.9354937 -93.375 24 C-92.69493896 23.42548096 -92.01487793 22.85096191 -91.31420898 22.2590332 C-89.90191313 21.07222034 -88.48542997 19.89037365 -87.06494141 18.71337891 C-85.18054598 17.14980748 -83.3144458 15.56678334 -81.44921875 13.98046875 C-56.66166324 -6.69302873 -30.55130643 -6.64783881 0 0 Z " fill="#FE6956" transform="translate(286,154)"/>
<path d="M0 0 C8.78165769 0.8881624 17.44343737 3.16281011 26 5.25 C27.26803467 5.5579248 28.53606934 5.86584961 29.8425293 6.18310547 C39.60888651 8.58806398 49.24596683 11.28521772 58.83447266 14.31787109 C60.91045333 14.9717933 62.99093282 15.60807331 65.07421875 16.23828125 C75.82629204 19.51019007 86.41382228 23.23112469 97 27 C97.144375 26.21625 97.28875 25.4325 97.4375 24.625 C98 22 98 22 99 20 C103.455 20.99 103.455 20.99 108 22 C106.78856524 25.41404341 105.20122817 28.30581673 103.3125 31.375 C101.47017401 34.65085184 101.00124444 35.92408912 100.9375 39.8125 C103.28695358 46.86086073 109.9529651 49.46571886 116.125 52.75 C117.02476562 53.25660156 117.92453125 53.76320313 118.8515625 54.28515625 C124.85578163 57.4856811 130.15452094 59.28673214 137 58 C140.98366607 55.05555116 143.39193968 51.15357754 146 47 C150.29718953 48.38914475 152.70687757 50.38031985 155.8125 53.625 C156.60269531 54.44226563 157.39289063 55.25953125 158.20703125 56.1015625 C158.79871094 56.72804688 159.39039063 57.35453125 160 58 C158.80482157 60.59586265 157.96228144 62.03448554 155.8125 64 C155.214375 64.66 154.61625 65.32 154 66 C154.3295634 69.53168494 155.85783659 71.20436382 158.3515625 73.609375 C159.03863281 74.28226562 159.72570312 74.95515625 160.43359375 75.6484375 C161.15675781 76.34195313 161.87992188 77.03546875 162.625 77.75 C167.40724934 82.38252883 172.02055872 87.050635 176.36083984 92.10253906 C178.83621451 94.96798618 181.41834244 97.73057775 184 100.5 C187.30557606 104.05918117 190.58234489 107.62901115 193.75 111.3125 C196.81958045 114.87472916 200.12128721 118.16124813 203.49609375 121.43359375 C205 123 205 123 205 124 C191.1694497 124.39046725 177.92094052 123.81735582 164.28710938 121.38818359 C162.22675738 121.03848679 160.15243438 120.77365481 158.078125 120.51953125 C153.44768501 119.81002835 150.2046976 119.22668113 146.859375 115.8203125 C145.54479164 113.97668949 144.28875247 112.09028875 143.0859375 110.171875 C140.70800114 106.55598676 138.02278766 103.51630416 135.0625 100.375 C134.54276611 99.82295898 134.02303223 99.27091797 133.48754883 98.70214844 C132.46586643 97.62412503 131.44128445 96.54884095 130.41357422 95.4765625 C129.17346245 94.18119186 127.94691888 92.87286 126.72265625 91.5625 C103.696208 67.54981654 73.34092663 53.71498722 42.06494141 43.95947266 C39.36221516 43.1133906 36.66986452 42.24279945 33.98046875 41.35546875 C20.8028289 37.03911226 7.40860388 33.51973889 -6 30 C-6.26020981 22.29897588 -6.18458868 15.53117187 -3.5625 8.25 C-3.33240234 7.55390625 -3.10230469 6.8578125 -2.86523438 6.140625 C-1.20100792 1.20100792 -1.20100792 1.20100792 0 0 Z " fill="#DBD6CD" transform="translate(177,239)"/>
<path d="M0 0 C5.59075719 3.23191717 10.04771686 6.11388548 13 12 C13.74165666 17.82730236 12.43410958 20.37671396 9 25 C7.2285033 26.83221864 5.41399263 28.62365745 3.5625 30.375 C0.42296931 33.39874512 -2.40632179 36.26212508 -4.5 40.125 C-7.36048635 45.15375536 -11.849981 48.19451649 -16.35546875 51.69482422 C-19.45167476 54.15211598 -22.43962969 56.73694794 -25.4375 59.3125 C-26.02845459 59.81620117 -26.61940918 60.31990234 -27.22827148 60.83886719 C-30.27606696 63.45163731 -33.20672368 66.11064047 -36 69 C-35.39414062 69.76441406 -34.78828125 70.52882813 -34.1640625 71.31640625 C-25.06526628 82.90435744 -16.7212949 94.8579559 -10 108 C-13.86856509 109.22233653 -17.75757157 110.32765643 -21.6796875 111.36523438 C-23.30893812 111.81094688 -24.93098564 112.28343658 -26.546875 112.77539062 C-41.91863832 117.39366162 -41.91863832 117.39366162 -46.86767578 115.15527344 C-50.25545968 112.56831341 -52.5658195 109.22817305 -54.86767578 105.68066406 C-56.57188148 103.15117893 -58.61431973 100.98050424 -60.6875 98.75 C-61.40808594 97.94691406 -62.12867188 97.14382813 -62.87109375 96.31640625 C-66.13628464 92.76363892 -69.55520891 89.377393 -73 86 C-74.00121433 85.0012158 -75.00140351 84.00140154 -76 83 C-76.66 82.34 -77.32 81.68 -78 81 C-80.31 82.98 -82.62 84.96 -85 87 C-89.33333333 82.66666667 -93.66666667 78.33333333 -98 74 C-90.33363918 62.74551136 -82.60540452 51.53604238 -74.82006836 40.36352539 C-71.3421591 35.37099527 -67.86933734 30.37535998 -64.42602539 25.35888672 C-63.53149671 24.05737551 -62.63365356 22.75813482 -61.73217773 21.46142578 C-59.63139605 18.43161315 -57.6025916 15.38447966 -55.6796875 12.23828125 C-49.66143789 2.57706437 -49.66143789 2.57706437 -44.0625 0.9375 C-43.21945312 0.78539062 -42.37640625 0.63328125 -41.5078125 0.4765625 C-38.82875626 -0.03254165 -36.8701951 -0.97527566 -34.4375 -2.1875 C-23.71736106 -6.55996612 -10.19151749 -4.99355155 0 0 Z " fill="#FE6956" transform="translate(422,211)"/>
<path d="M0 0 C6.65513194 0.6070342 13.11078456 2.37340158 19.58984375 3.94921875 C21.41582848 4.39186821 21.41582848 4.39186821 23.27870178 4.84346008 C25.85368339 5.46951317 28.42819719 6.09724314 31.00219727 6.72729492 C34.8899722 7.67808717 38.78204642 8.61066718 42.67382812 9.54492188 C65.25341101 15.0246206 88.32322853 20.80303566 105 38 C105.60972656 38.60070312 106.21945313 39.20140625 106.84765625 39.8203125 C116.26124013 49.72709098 122.30339883 63.19841805 128.6628418 75.14697266 C131.48333793 80.40419797 134.49245078 85.40214029 137.8918457 90.30712891 C139 92 139 92 139 93 C131.71158753 92.43956609 125.25503975 90.29898227 118.359375 87.94921875 C117.1351886 87.53888901 115.9110022 87.12855927 114.64971924 86.70579529 C111.35880524 85.60264825 108.07102144 84.490451 104.78387451 83.37613678 C101.38224198 82.22439941 97.97816227 81.07994406 94.57421875 79.93505859 C90.50584704 78.5663578 86.43767152 77.19709596 82.37072754 75.82415771 C74.74354739 73.25043502 67.1069379 70.70844136 59.453125 68.21484375 C57.80498352 67.67562727 56.15687018 67.13632478 54.50878906 66.59692383 C52.29609069 65.87300004 50.08280021 65.15157815 47.86608887 64.44003296 C31.13632413 59.06580353 15.75986089 52.0991585 6.2421875 36.52734375 C1.71656245 27.31954686 -1.1465123 18.03287706 -1.125 7.75 C-1.12757812 6.50734375 -1.13015625 5.2646875 -1.1328125 3.984375 C-1 1 -1 1 0 0 Z " fill="#EBE7DF" transform="translate(22,386)"/>
<path d="M0 0 C3.79238873 0.80147766 7.59559233 1.4950333 11.41113281 2.17773438 C17.05025528 3.23879547 22.67775248 4.33990444 28.28613281 5.55273438 C29.38538086 5.77135132 29.38538086 5.77135132 30.50683594 5.99438477 C35.53911084 7.12377377 35.53911084 7.12377377 37.39550781 9.57617188 C38.6924645 14.70504604 36.40369768 19.78434491 34.25488281 24.40429688 C32.3876886 27.4764827 30.03833309 29.37443005 27.25488281 31.60742188 C22.36153624 35.79938877 18.1918713 40.81058461 13.91113281 45.61523438 C13.21246094 46.39898437 12.51378906 47.18273437 11.79394531 47.99023438 C8.73381542 51.45750602 5.75917552 54.96973971 2.91113281 58.61523438 C-3.04004193 57.19981984 -8.94084905 55.70469118 -14.77636719 53.86523438 C-31.0980867 48.77794517 -47.60430869 44.40018602 -64.21386719 40.36523438 C-65.23704041 40.11549866 -65.23704041 40.11549866 -66.28088379 39.86071777 C-75.84143843 37.53386827 -85.4271888 35.47584807 -95.08886719 33.61523438 C-95.08886719 32.62523437 -95.08886719 31.63523437 -95.08886719 30.61523438 C-93.1745638 28.75794002 -91.28348003 27.09524117 -89.21386719 25.42773438 C-88.61960937 24.93869629 -88.02535156 24.4496582 -87.41308594 23.94580078 C-86.20584786 22.95502179 -84.99524236 21.96833124 -83.78125 20.98583984 C-82.33110742 19.81141681 -80.89239323 18.62290657 -79.45605469 17.43164062 C-53.70512659 -3.68751988 -32.23832763 -6.955905 0 0 Z " fill="#FD6956" transform="translate(131.0888671875,281.384765625)"/>
<path d="M0 0 C28.48390508 4.99730193 56.53273464 11.8791972 84.22460938 20.17382812 C86.755246 20.92714219 89.29007636 21.66275569 91.828125 22.390625 C155.72942889 40.86303582 202.51217105 64.19039932 235.91015625 123.99609375 C239.79120233 131.3023909 243.3310139 138.79168654 246.875 146.265625 C247.28492188 147.12961914 247.69484375 147.99361328 248.1171875 148.88378906 C249 151 249 151 249 153 C234.50386238 149.6325344 223.3393815 141.34615088 213.84765625 130.16796875 C211.77579243 127.73692346 209.64335344 125.36820608 207.5 123 C204.90683982 120.12884609 202.33704662 117.24402643 199.8125 114.3125 C190.35313006 103.51993027 180.36809439 93.23052771 170.26989746 83.03872681 C169.10982247 81.86631017 167.95225508 80.69140583 166.79748535 79.51376343 C149.58224346 61.98024338 132.94626094 52.05843666 109.6875 44.125 C107.89086602 43.50600693 106.09448086 42.8862912 104.29833984 42.26586914 C100.78100629 41.0517511 97.26233642 39.84163108 93.74267578 38.63427734 C89.78750765 37.27503508 85.84244832 35.89057236 81.90234375 34.48828125 C71.4577703 30.77367333 61.01199028 27.46289418 50.29833984 24.61962891 C45.20152036 23.24553417 40.13250465 21.7702645 35.06201172 20.30249023 C30.44566675 18.96958989 25.82340467 17.68077396 21.17578125 16.4609375 C20.22550049 16.20562256 19.27521973 15.95030762 18.29614258 15.68725586 C16.48058207 15.20043264 14.66149543 14.72650853 12.83862305 14.26782227 C7.65115573 12.85813475 4.38979192 11.42499784 1 7 C0.1875 3.1875 0.1875 3.1875 0 0 Z " fill="#CE4631" transform="translate(21,333)"/>
<path d="M0 0 C12.36913684 -0.56449752 25.56599599 2.41218579 35.41015625 10.1796875 C38.25684493 13.23467047 40.14168763 15.60722846 40.84765625 19.7421875 C40.04993402 26.010005 36.64916951 30.36237181 31.796875 34.30078125 C29.77441828 35.76070034 27.74678871 37.21347224 25.71484375 38.66015625 C17.25435069 44.89273637 9.33898903 52.86967002 4.41015625 62.1796875 C0.33361433 60.90177467 -3.54468282 59.37354891 -7.45239258 57.66650391 C-22.81648093 50.96512858 -38.68440088 45.44843024 -54.58984375 40.1796875 C-51.41257883 36.36696959 -48.18984475 32.72452279 -44.65234375 29.2421875 C-41.32002539 25.96074423 -38.23397202 22.53518534 -35.1796875 18.99609375 C-28.03451963 10.83269557 -17.66484363 1.83325891 -6.52734375 0.2421875 C-4.35033958 0.20763188 -2.17205675 0.15070077 0 0 Z " fill="#FD7D5E" transform="translate(192.58984375,301.8203125)"/>
<path d="M0 0 C4.26158076 3.13573762 7.74864739 6.89422807 8.640625 12.24609375 C7.85763083 18.2863345 3.8949691 22.25408371 -0.7265625 25.98828125 C-3.83873834 28.52132427 -5.98229477 31.39509684 -8.296875 34.68359375 C-15.47541341 44.4629297 -24.93295918 51.70256576 -34.796875 58.62109375 C-35.53550781 57.71488281 -36.27414063 56.80867188 -37.03515625 55.875 C-46.52873971 44.39838962 -56.61279538 35.99025935 -69.51171875 28.56640625 C-72.09554607 27.03638722 -74.45431118 25.4880995 -76.796875 23.62109375 C-68.63541581 11.72359874 -59.81892461 0.1057727 -45.3828125 -3.6875 C-42.81613751 -4.33370409 -42.81613751 -4.33370409 -40.4609375 -5.2265625 C-26.40454743 -10.24670181 -12.36698674 -7.79742403 0 0 Z " fill="#FE6956" transform="translate(277.796875,342.37890625)"/>
<path d="M0 0 C23.32203844 5.08833039 42.741378 34.20325151 54.703125 52.62255859 C57.89389104 57.69454711 60.97277871 62.82901179 64 68 C59.04375614 70.60218014 53.79061496 71.68341712 48.375 72.93359375 C45.51599322 73.59584598 42.77296009 74.38911065 40 75.34765625 C36.07701665 76.53339404 33.09637865 77.27186315 29 77 C24.87261236 74.1239732 22.15201946 70.71642384 19.22900391 66.66455078 C17.41738865 64.21091692 15.37434832 61.99449928 13.3125 59.75 C12.59191406 58.94691406 11.87132812 58.14382813 11.12890625 57.31640625 C7.86371536 53.76363892 4.44479109 50.377393 1 47 C-0.00121433 46.0012158 -1.00140351 45.00140154 -2 44 C-2.66 43.34 -3.32 42.68 -4 42 C-6.31 43.98 -8.62 45.96 -11 48 C-15.33333333 43.66666667 -19.66666667 39.33333333 -24 35 C-16.01636459 23.32204396 -8.02033172 11.65278656 0 0 Z " fill="#C13B31" transform="translate(348,250)"/>
<path d="M0 0 C1.09207764 0.00088623 2.18415527 0.00177246 3.30932617 0.00268555 C18.6207088 0.21992302 33.78933394 3.19906899 48.5 7.375 C45.10588553 9.63774298 41.73947433 10.61662172 37.875 11.75 C32.57551086 13.34777055 27.55388509 15.08815558 22.55859375 17.49609375 C20.29529319 18.46239854 18.07957884 18.99187772 15.6875 19.5625 C3.10638735 23.23199119 -11.2326044 36.98400776 -17.6875 48.375 C-18.32362665 49.69338463 -18.93320559 51.02535589 -19.5 52.375 C-19.933125 53.385625 -20.36625 54.39625 -20.8125 55.4375 C-21.039375 56.076875 -21.26625 56.71625 -21.5 57.375 C-22.49 57.375 -23.48 57.375 -24.5 57.375 C-24.17 53.745 -23.84 50.115 -23.5 46.375 C-36.79210844 43.18132562 -50.13465319 40.24545762 -63.5 37.375 C-63.5 36.385 -63.5 35.395 -63.5 34.375 C-61.34331005 32.24851579 -59.19414579 30.3104937 -56.875 28.375 C-56.19493896 27.80048096 -55.51487793 27.22596191 -54.81420898 26.6340332 C-53.40191313 25.44722034 -51.98542997 24.26537365 -50.56494141 23.08837891 C-48.68054598 21.52480748 -46.8144458 19.94178334 -44.94921875 18.35546875 C-31.62746912 7.24476615 -17.59936671 -0.0258115 0 0 Z " fill="#FC7C5D" transform="translate(249.5,149.625)"/>
<path d="M0 0 C1.53711042 0.05277632 3.07326356 0.14767972 4.60546875 0.28125 C5.39373047 0.31734375 6.18199219 0.3534375 6.99414062 0.390625 C8.92919086 0.48444562 10.86172082 0.62794256 12.79296875 0.78125 C3.97704538 14.98301052 -5.7527276 28.57790173 -15.30249023 42.29003906 C-19.12144353 47.77528841 -22.92786415 53.26852001 -26.70703125 58.78125 C-31.86901589 66.3111175 -37.08699022 73.80163802 -42.3046875 81.29296875 C-46.12274649 86.7773533 -49.92855408 92.26952642 -53.70703125 97.78125 C-58.86901589 105.3111175 -64.08699022 112.80163802 -69.3046875 120.29296875 C-73.12274649 125.7773533 -76.92855408 131.26952642 -80.70703125 136.78125 C-85.86901589 144.3111175 -91.08699022 151.80163802 -96.3046875 159.29296875 C-100.12274649 164.7773533 -103.92855408 170.26952642 -107.70703125 175.78125 C-112.86901589 183.3111175 -118.08699022 190.80163802 -123.3046875 198.29296875 C-127.12274799 203.77735545 -130.92831523 209.26968869 -134.70703125 214.78125 C-139.29081352 221.46206626 -143.89985104 228.12520802 -148.51953125 234.78125 C-149.18984375 235.74933594 -149.86015625 236.71742188 -150.55078125 237.71484375 C-152.42485877 240.41186949 -154.31028756 243.10012323 -156.20703125 245.78125 C-156.78243652 246.59464844 -157.3578418 247.40804687 -157.95068359 248.24609375 C-158.48258301 248.97957031 -159.01448242 249.71304688 -159.5625 250.46875 C-160.2589563 251.43361328 -160.2589563 251.43361328 -160.96948242 252.41796875 C-161.58206909 253.09279297 -161.58206909 253.09279297 -162.20703125 253.78125 C-162.86703125 253.78125 -163.52703125 253.78125 -164.20703125 253.78125 C-163.56776533 249.67168339 -161.34825651 246.52317207 -159.14453125 243.09375 C-158.70898926 242.40659912 -158.27344727 241.71944824 -157.82470703 241.01147461 C-156.29162359 238.5974324 -154.74961575 236.18923125 -153.20703125 233.78125 C-151.98684322 231.86987845 -150.76679815 229.95841562 -149.546875 228.046875 C-146.13836012 222.71123332 -142.721933 217.38069612 -139.30371094 212.05126953 C-135.93465704 206.79683218 -132.57104426 201.53891546 -129.20703125 196.28125 C-127.87372565 194.19789892 -126.54039228 192.11456561 -125.20703125 190.03125 C-124.54703125 189 -123.88703125 187.96875 -123.20703125 186.90625 C-37.20703125 52.53125 -37.20703125 52.53125 -35.2043457 49.40209961 C-33.87990869 47.33263643 -32.55552658 45.26313811 -31.23120117 43.19360352 C-28.13026324 38.34788646 -25.02880292 33.50250643 -21.92532349 28.65841675 C-20.82963594 26.9481468 -19.73412724 25.23776242 -18.63867188 23.52734375 C-17.26663085 21.38518937 -15.89425668 19.24324832 -14.52148438 17.1015625 C-13.5865918 15.64169922 -13.5865918 15.64169922 -12.6328125 14.15234375 C-12.03702393 13.23759277 -11.44123535 12.3228418 -10.82739258 11.38037109 C-9.19395833 8.84446492 -9.19395833 8.84446492 -7.9519043 6.31103516 C-5.86661563 2.301443 -4.69518327 0.34914352 0 0 Z " fill="#A99F96" transform="translate(468.20703125,20.21875)"/>
<path d="M0 0 C1.57388443 0.33490832 3.14806426 0.66843424 4.72265625 1 C7.81785691 1.65493564 10.91020183 2.32013386 14 3 C13.67 3.66 13.34 4.32 13 5 C10.83461908 5.66072649 8.64004937 6.22634906 6.4375 6.75 C0.65009642 8.19333912 -4.9247781 9.94174223 -10.5 12.0625 C-11.14525635 12.30774414 -11.7905127 12.55298828 -12.45532227 12.80566406 C-27.60681387 18.65862552 -42.24223571 28.92502168 -51 43 C-57.71846006 42.34336862 -64.03863898 40.82826897 -70.5625 39.125 C-79.6670326 36.79311344 -88.75413407 34.68914858 -98 33 C-98 32.01 -98 31.02 -98 30 C-96.08569661 28.14270565 -94.19461284 26.4800068 -92.125 24.8125 C-91.53074219 24.32346191 -90.93648437 23.83442383 -90.32421875 23.33056641 C-89.11698067 22.33978742 -87.90637517 21.35309686 -86.69238281 20.37060547 C-85.24224023 19.19618244 -83.80352604 18.00767219 -82.3671875 16.81640625 C-55.5073681 -5.21219151 -33.35338973 -7.30045484 0 0 Z " fill="#FB7B5D" transform="translate(134,282)"/>
<path d="M0 0 C7.78805824 1.39268806 15.40626258 3.33358401 23.02441406 5.45117188 C24.88692047 5.96858591 26.75198089 6.47678098 28.6171875 6.984375 C56.1770878 14.76201558 84.7347086 23.26644447 107 42 C107.56799316 42.47083008 108.13598633 42.94166016 108.72119141 43.42675781 C119.63170389 52.48245406 129.12051553 61.90908498 138 73 C139.6573288 75.00806583 141.32787024 77.00423222 143 79 C142.67 79.66 142.34 80.32 142 81 C141.21625 80.505 140.4325 80.01 139.625 79.5 C134.90459547 77.54672916 131.04825336 77.15769371 126 78 C122.66618027 79.66193189 119.99815565 81.88660856 117.1875 84.3125 C116.41269287 84.94824951 115.63788574 85.58399902 114.83959961 86.23901367 C112.53895628 88.13605204 110.26757626 90.06364275 108 92 C106.77976621 93.02217229 105.55850861 94.04312442 104.3359375 95.0625 C102.20666717 96.84569401 100.09040045 98.64255159 97.984375 100.453125 C94.09042177 103.77623692 90.12315129 107.00131382 86.14453125 110.22265625 C83.96529769 111.97255709 83.96529769 111.97255709 82 114 C79.875 113.625 79.875 113.625 78 113 C78 109 78 109 79.18994141 107.52368164 C79.73827637 107.07371826 80.28661133 106.62375488 80.8515625 106.16015625 C81.45613281 105.65419922 82.06070313 105.14824219 82.68359375 104.62695312 C83.32425781 104.11068359 83.96492188 103.59441406 84.625 103.0625 C85.55119141 102.29389648 85.55119141 102.29389648 86.49609375 101.50976562 C88.85234806 99.55779495 91.21197536 97.61364417 93.6262207 95.73364258 C97.42854379 92.71842652 100.1323235 89.45905044 102.9375 85.5625 C105.67435203 81.86720725 108.34629373 78.41405085 111.9375 75.5 C115.83989709 72.31436973 117.69277461 70.06279904 118.4375 65.0625 C117.75179506 60.26256539 115.78099533 57.4380925 112.01171875 54.39453125 C101.28028777 46.88808989 90.86842461 45.2624035 78 46 C75.35052536 46.50536964 72.97628385 47.19027024 70.4453125 48.11328125 C68 49 68 49 65.1796875 49.66796875 C51.47919021 53.19146479 42.44648399 64.57155931 35 76 C33.35 75.67 31.7 75.34 30 75 C32.34667843 63.34312996 46.74740474 52.04317556 56.0625 45.625 C60.59760216 42.47819442 62.98923163 40.17054725 65 35 C65.61426832 31.23760656 65.21259534 29.46384437 63.625 26 C55.6166368 16.84758491 43.39741067 13.78480474 31.65625 12.6875 C28.73271851 12.627221 25.91153153 12.74063943 23 13 C22.1853125 13.05929687 21.370625 13.11859375 20.53125 13.1796875 C10.48656155 14.51680512 0.81631752 20.73080959 -6 28 C-6.58523437 28.57363281 -7.17046875 29.14726562 -7.7734375 29.73828125 C-10.79186254 32.7051722 -13.67585982 35.72921642 -16.4375 38.9375 C-17.62164074 40.29460512 -18.80928807 41.6486567 -20 43 C-21.01126953 44.14855469 -21.01126953 44.14855469 -22.04296875 45.3203125 C-22.73003906 46.06023437 -23.41710937 46.80015625 -24.125 47.5625 C-25.05699219 48.58537109 -25.05699219 48.58537109 -26.0078125 49.62890625 C-28 51 -28 51 -30.7421875 50.71484375 C-31.48726562 50.47894531 -32.23234375 50.24304688 -33 50 C-31.66000502 46.993182 -30.20154709 45.00237391 -27.8125 42.75 C-24.66498942 39.6933454 -21.76435557 36.5072965 -18.8984375 33.1875 C-16.70814906 30.66371085 -14.48306795 28.17350445 -12.25 25.6875 C-11.14398438 24.45580078 -11.14398438 24.45580078 -10.015625 23.19921875 C-9.35046875 22.47347656 -8.6853125 21.74773437 -8 21 C-7.18789062 20.11248047 -7.18789062 20.11248047 -6.359375 19.20703125 C-5 18 -5 18 -3 18 C0.54522932 9.13884494 0.54522932 9.13884494 0 0 Z " fill="#ECC7B1" transform="translate(167,290)"/>
<path d="M0 0 C3.68424778 1.72259677 5.95394973 4.53360348 8.046875 7.95703125 C11.25348731 17.57686817 8.17144039 25.58240782 3.98046875 34.27734375 C1.78242506 38.58659483 -0.7763554 42.31283506 -3.953125 45.95703125 C-4.35402344 46.51003906 -4.75492187 47.06304687 -5.16796875 47.6328125 C-8.93840619 52.61804134 -13.81459967 55.91916537 -18.92773438 59.40576172 C-21.54437135 61.19484784 -23.91650771 62.91942963 -26.1328125 65.1953125 C-28.09592889 67.09523845 -29.28505461 67.57587834 -31.953125 67.95703125 C-32.33082031 67.12945312 -32.70851563 66.301875 -33.09765625 65.44921875 C-37.33396912 56.26227327 -41.79502093 47.20719525 -46.39575195 38.19677734 C-46.8568335 37.28621582 -47.31791504 36.3756543 -47.79296875 35.4375 C-48.20925537 34.62176514 -48.62554199 33.80603027 -49.05444336 32.96557617 C-49.953125 30.95703125 -49.953125 30.95703125 -49.953125 28.95703125 C-48.99535156 28.4465625 -48.03757812 27.93609375 -47.05078125 27.41015625 C-39.44385916 23.28418797 -32.14342496 18.89835888 -25.078125 13.89453125 C-24.36213135 13.38801025 -23.6461377 12.88148926 -22.90844727 12.35961914 C-18.8947937 9.47502397 -15.15670684 6.42386378 -11.453125 3.14453125 C-7.59347316 0.00692312 -4.93549801 -1.07635861 0 0 Z " fill="#FE6956" transform="translate(474.953125,290.04296875)"/>
<path d="M0 0 C4.5573425 1.11401705 7.67354588 3.13733204 10.45703125 6.92578125 C13.49422281 13.11394965 12.5805082 20.57635567 10.96875 27.10546875 C5.66181174 42.1119124 -5.08608998 53.75919492 -18.31640625 62.27734375 C-18.93386719 62.74269531 -19.55132812 63.20804687 -20.1875 63.6875 C-20.1875 64.3475 -20.1875 65.0075 -20.1875 65.6875 C-25.8125 68.6875 -25.8125 68.6875 -29.1875 68.6875 C-29.41300537 68.14037354 -29.63851074 67.59324707 -29.87084961 67.02954102 C-35.04277165 54.54994984 -40.6369009 42.50335607 -47.1875 30.6875 C-43.9775782 28.13044365 -40.59975769 26.21235325 -37 24.25 C-26.37248595 18.31423128 -16.3623415 11.20792821 -7 3.4375 C-4.40955069 1.40001199 -3.30109206 0.71200025 0 0 Z " fill="#FE6956" transform="translate(322.1875,417.3125)"/>
<path d="M0 0 C5.15058939 0.65222868 10.09563653 1.6587677 15.125 2.9375 C15.81464844 3.10701172 16.50429688 3.27652344 17.21484375 3.45117188 C20.93799654 4.3872992 24.47704403 5.47155801 28 7 C26.64813764 10.66898891 24.99013337 13.79837899 22.8671875 17.078125 C22.23329102 18.06256592 21.59939453 19.04700684 20.94628906 20.0612793 C20.26276367 21.11355713 19.57923828 22.16583496 18.875 23.25 C17.79920741 24.9177247 16.72342209 26.58545415 15.64807129 28.25346375 C14.52603916 29.99284511 13.4022233 31.73106533 12.27832031 33.46923828 C10.01595976 36.97135302 7.76767156 40.48234265 5.5234375 43.99609375 C5.16269135 44.5608139 4.80194519 45.12553406 4.43026733 45.70736694 C3.37004882 47.36732866 2.31002275 49.02741327 1.25 50.6875 C-6.36694759 62.61464201 -6.36694759 62.61464201 -10 68 C-16.02583975 67.26990679 -21.62947323 65.30942969 -27.375 63.4375 C-28.39722656 63.10814453 -29.41945313 62.77878906 -30.47265625 62.43945312 C-32.98300622 61.63004122 -35.49204244 60.81678851 -38 60 C-36.30492374 50.50028443 -29.27806322 44.06454274 -22.546875 37.578125 C-19.125863 34.11513739 -16.18552813 30.33677803 -13.16796875 26.5234375 C-11.14518485 24.16898993 -9.11824468 22.35154294 -6.6875 20.4375 C-2.30651831 16.80854311 -0.33879697 12.47849811 1 7 C1.21702642 3.35618296 1.21702642 3.35618296 0 0 Z " fill="#FD7C5E" transform="translate(316,162)"/>
<path d="M0 0 C4.42323682 0.58265272 7.5155864 2.26766211 11.3125 4.5625 C12.91544922 5.52349609 12.91544922 5.52349609 14.55078125 6.50390625 C15.35902344 6.99761719 16.16726563 7.49132812 17 8 C15.87548273 10.9719385 14.77706209 13.33440687 13 16 C13 16.99 13 17.98 13 19 C15.3454867 21.06934694 15.3454867 21.06934694 18.375 23.125 C23.44272797 26.77033959 28.11568833 30.65356108 32.70703125 34.89453125 C34.74089454 36.76208204 36.82147023 38.5398422 38.9375 40.3125 C47.11620533 47.46264604 54.41580067 55.66943909 60 65 C59.21625 64.67 58.4325 64.34 57.625 64 C51.90352387 62.42166176 46.92820614 61.45669506 41.47265625 64.33203125 C39.11259056 66.01779246 36.85067757 67.77593628 34.62792969 69.63867188 C32.81570714 71.15411172 30.97661157 72.63253252 29.1328125 74.109375 C25.69322115 76.87260078 22.27802954 79.66415475 18.87011719 82.46630859 C17.21354314 83.82487232 15.55066494 85.1748594 13.8828125 86.51953125 C9.3917671 90.15180735 5.01631461 93.8552263 0.75 97.75 C-2.99535801 101.16629301 -6.79814596 104.16831575 -11 107 C-11.99 105.35 -12.98 103.7 -14 102 C-13.15179688 101.27296875 -12.30359375 100.5459375 -11.4296875 99.796875 C-10.86926758 99.31645752 -10.30884766 98.83604004 -9.73144531 98.34106445 C-8.4836277 97.27162371 -7.23557706 96.20245482 -5.98730469 95.13354492 C-2.66054096 92.28411759 0.66215057 89.43019605 3.9765625 86.56640625 C4.92571533 85.7480127 4.92571533 85.7480127 5.89404297 84.91308594 C7.11584568 83.85939762 8.33626223 82.80409949 9.55517578 81.74707031 C13.77513519 78.11243241 13.77513519 78.11243241 16 77 C16.84691406 75.44345703 16.84691406 75.44345703 17.7109375 73.85546875 C20.04192579 69.62447658 23.13043911 66.60035138 26.625 63.3125 C27.78845951 62.20926361 28.94748624 61.10132957 30.1015625 59.98828125 C30.61025879 59.50915283 31.11895508 59.03002441 31.64306641 58.53637695 C34.19418852 55.64788983 34.96328331 53.40388355 35.3125 49.5625 C34.96937069 45.65082582 34.2602984 44.14967668 32 41 C21.35688797 32.32258753 9.69088111 29.62309787 -3.79980469 30.66748047 C-8.84246289 31.4295866 -13.33712551 33.54447375 -17.92578125 35.6875 C-21 37 -21 37 -25 37 C-23.51965134 33.8573074 -21.76218705 31.05142237 -19.8046875 28.18359375 C-19.1744165 27.25885254 -18.54414551 26.33411133 -17.89477539 25.38134766 C-17.22824951 24.40987793 -16.56172363 23.4384082 -15.875 22.4375 C-15.20009521 21.45056152 -14.52519043 20.46362305 -13.82983398 19.44677734 C-9.32801727 12.88282416 -4.77128616 6.37187737 0 0 Z " fill="#EBC6B0" transform="translate(399,177)"/>
<path d="M0 0 C10.21745256 1.5681531 20.1382618 4.26241153 30.125 6.875 C33.48111937 7.74991898 36.8379923 8.62188869 40.1953125 9.4921875 C41.01750275 9.70625748 41.83969299 9.92032745 42.6867981 10.1408844 C47.4214072 11.36512029 52.16610408 12.50951856 56.93621826 13.58665466 C63.82783516 15.14640162 70.40359166 16.92964356 76.875 19.8125 C77.66817627 20.15724365 78.46135254 20.5019873 79.27856445 20.85717773 C85.58560821 23.66754024 91.44956704 26.8681168 97 31 C97.69996094 31.51820313 98.39992188 32.03640625 99.12109375 32.5703125 C108.04594835 39.77282674 114.4160886 49.58830175 119 60 C115.3944169 58.36109859 112.34042049 56.17631092 109.125 53.875 C102.33969845 49.11663909 95.32425339 44.8756139 88 41 C87.3930127 40.67676758 86.78602539 40.35353516 86.16064453 40.02050781 C73.70867908 33.50437906 60.52258156 29.25946167 47.16162109 25.0078125 C44.42163178 24.13440124 41.68818736 23.24429035 38.95703125 22.34375 C25.78459782 18.03923441 12.40040142 14.51758576 -1 11 C-1.0270043 9.54176788 -1.04639787 8.08339325 -1.0625 6.625 C-1.07410156 5.81289063 -1.08570313 5.00078125 -1.09765625 4.1640625 C-1 2 -1 2 0 0 Z " fill="#E9E5DD" transform="translate(172,258)"/>
<path d="M0 0 C3.37902844 1.12634281 3.91198124 1.84399269 5.96875 4.62109375 C6.53513184 5.38381592 7.10151367 6.14653809 7.68505859 6.93237305 C8.28398926 7.75906494 8.88291992 8.58575684 9.5 9.4375 C10.11568848 10.27901611 10.73137695 11.12053223 11.36572266 11.98754883 C17.40897067 20.36154114 22.78566649 29.09306705 28 38 C23.04375614 40.60218014 17.79061496 41.68341712 12.375 42.93359375 C9.51599322 43.59584598 6.77296009 44.38911065 4 45.34765625 C0.0684604 46.53598021 -2.8948445 47.28533592 -7 47 C-11.70404785 43.6747248 -14.66961571 39.65356728 -18 35 C-19.21320753 33.56964248 -20.4389122 32.14957981 -21.6875 30.75 C-22.450625 29.8425 -23.21375 28.935 -24 28 C-22.4186938 24.26077871 -20.06769602 21.70350263 -17.3125 18.75 C-14.22362411 15.41187765 -11.15917299 12.06795152 -8.1875 8.625 C-5.57359678 5.61467543 -2.86178319 2.77506249 0 0 Z " fill="#D04732" transform="translate(384,280)"/>
<path d="M0 0 C5.61 0 11.22 0 17 0 C15.52439213 4.42682362 14.30797144 7.49886937 12.015625 11.39453125 C11.41741943 12.41949707 10.81921387 13.44446289 10.20288086 14.50048828 C9.55843018 15.59345215 8.91397949 16.68641602 8.25 17.8125 C6.87849977 20.15840519 5.51137872 22.50685028 4.14453125 24.85546875 C3.79681168 25.45194214 3.4490921 26.04841553 3.09083557 26.66296387 C-0.36876475 32.60851207 -3.72080264 38.61251237 -7.0625 44.625 C-12.17467067 53.80576233 -17.41747951 62.90056273 -22.73925781 71.96118164 C-27.02475175 79.27692599 -31.18808012 86.65493485 -35.3125 94.0625 C-37.02064208 97.11700164 -38.73077363 100.17037003 -40.44287109 103.22265625 C-41.437844 104.99732101 -42.43058203 106.77324184 -43.42041016 108.55078125 C-44.63997816 110.73055007 -45.87828209 112.89818074 -47.125 115.0625 C-47.63800659 115.99171265 -47.63800659 115.99171265 -48.16137695 116.93969727 C-49.1328125 118.59765625 -49.1328125 118.59765625 -51 121 C-52.32 121 -53.64 121 -55 121 C-52.75303827 113.51012757 -49.58683556 106.57489469 -46.22192383 99.53442383 C-44.52705375 95.98673422 -42.84994589 92.43065888 -41.171875 88.875 C-40.82479492 88.14035522 -40.47771484 87.40571045 -40.12011719 86.64880371 C-36.49934732 78.96895583 -32.99542234 71.23748687 -29.5 63.5 C-22.7183033 48.50330614 -15.75642348 33.59514432 -8.7421875 18.70605469 C-5.81155162 12.47845344 -2.90774958 6.23830969 0 0 Z " fill="#9B9288" transform="translate(380,21)"/>
<path d="M0 0 C27.48028656 4.82122408 54.56775135 11.38375774 81.3046875 19.3203125 C89.17319412 21.6543955 97.08463218 23.83126917 105 26 C104.67 30.95 104.34 35.9 104 41 C96.06723055 39.47151159 88.6635949 36.8934106 81.0625 34.1875 C70.86438084 30.60280354 60.66216893 27.32479996 50.20166016 24.58740234 C45.13361584 23.23524947 40.09879472 21.76056534 35.06054688 20.30200195 C30.4446676 18.96935019 25.82290589 17.68064305 21.17578125 16.4609375 C20.22550049 16.20562256 19.27521973 15.95030762 18.29614258 15.68725586 C16.48058207 15.20043264 14.66149543 14.72650853 12.83862305 14.26782227 C7.65115573 12.85813475 4.38979192 11.42499784 1 7 C0.1875 3.1875 0.1875 3.1875 0 0 Z " fill="#BD3A30" transform="translate(21,333)"/>
<path d="M0 0 C2.05078125 0.03255208 4.1015625 0.06510417 6.15234375 0.09765625 C2.941902 6.07249862 -0.50906767 11.77451329 -4.3203125 17.3828125 C-5.38750957 18.96849024 -6.45405417 20.55460727 -7.52001953 22.14111328 C-8.34291473 23.36402069 -8.34291473 23.36402069 -9.18243408 24.6116333 C-11.92970331 28.71305261 -14.63637963 32.84092905 -17.34375 36.96875 C-18.47514685 38.69148084 -19.60665951 40.41413563 -20.73828125 42.13671875 C-21.31513672 43.01489258 -21.89199219 43.89306641 -22.48632812 44.79785156 C-33.59398486 61.70054528 -44.81685344 78.51953477 -56.15548706 95.26803589 C-65.93167122 109.71369777 -75.56711587 124.24667925 -85.14001465 138.82769775 C-95.70363643 154.91247543 -106.42028931 170.88974653 -117.22070312 186.81640625 C-117.79393311 187.66269592 -118.36716309 188.5089856 -118.95776367 189.38092041 C-120.06483806 191.01529325 -121.17303715 192.64890492 -122.2824707 194.28167725 C-124.77233935 197.96031126 -127.21858163 201.65436623 -129.56445312 205.42675781 C-129.9778595 206.08898346 -130.39126587 206.75120911 -130.81719971 207.4335022 C-131.90575824 209.19098498 -132.97938723 210.95769087 -134.05175781 212.72509766 C-134.6444043 213.50804199 -135.23705078 214.29098633 -135.84765625 215.09765625 C-136.83765625 215.09765625 -137.82765625 215.09765625 -138.84765625 215.09765625 C-137.28069364 210.58618148 -134.84477122 206.79999413 -132.22265625 202.84765625 C-131.22320128 201.32211029 -130.22455267 199.79603586 -129.2265625 198.26953125 C-128.68402832 197.44130859 -128.14149414 196.61308594 -127.58251953 195.75976562 C-124.41053562 190.89242639 -121.28791794 185.99348163 -118.16015625 181.09765625 C-116.78128286 178.94138524 -115.40237619 176.7851355 -114.0234375 174.62890625 C-113.3320166 173.54738281 -112.6405957 172.46585938 -111.92822266 171.3515625 C-108.56979081 166.09913589 -105.20861863 160.84846381 -101.84765625 155.59765625 C-100.51430905 153.51433179 -99.18097574 151.43099845 -97.84765625 149.34765625 C-79.18098958 120.18098958 -60.51432292 91.01432292 -41.84765625 61.84765625 C-41.18725342 60.81576172 -40.52685059 59.78386719 -39.84643555 58.72070312 C-38.51722668 56.64384471 -37.18796263 54.56702162 -35.85864258 52.49023438 C-32.46174439 47.18312753 -29.06589858 41.87535201 -25.671875 36.56640625 C-19.59854876 27.06788641 -13.52357367 17.57044197 -7.41015625 8.09765625 C-6.95535889 7.39125 -6.50056152 6.68484375 -6.03198242 5.95703125 C-2.25656988 0.11926902 -2.25656988 0.11926902 0 0 Z " fill="#B8AEA4" transform="translate(465.84765625,21.90234375)"/>
<path d="M0 0 C3.63568958 3.25083055 5.92644141 6.95719459 8.25 11.1875 C8.63551025 11.88222412 9.02102051 12.57694824 9.41821289 13.29272461 C12.25266038 18.47232273 14.90215159 23.73060334 17.4375 29.0625 C17.76717773 29.75174561 18.09685547 30.44099121 18.43652344 31.15112305 C23.98158681 43.07127103 25.43288977 56.50794108 20.9375 69.0625 C15.15748864 81.93395387 5.90619485 89.20889437 -6.375 95.5 C-7.0774585 95.86295166 -7.77991699 96.22590332 -8.50366211 96.59985352 C-13.63108762 99.12297079 -13.63108762 99.12297079 -17 98 C-16.443125 97.57589844 -15.88625 97.15179688 -15.3125 96.71484375 C-1.38148474 86.00772898 10.10895152 75.55417401 15 58 C16.01275579 48.79996446 16.01275579 48.79996446 13.25 40.25 C10.23949024 37.23949024 8.53769594 36.23099409 4.34765625 35.6015625 C-0.49054077 36.17740392 -3.02233248 38.69031454 -6.6875 41.75 C-12.96519284 46.77577294 -19.36856915 51.35975909 -26.1875 55.625 C-26.97664795 56.1209668 -27.7657959 56.61693359 -28.57885742 57.12792969 C-36.90698573 62.2900296 -36.90698573 62.2900296 -41 64 C-41.99 63.67 -42.98 63.34 -44 63 C-44.6875 60.9375 -44.6875 60.9375 -45 59 C-44.11441406 58.56171875 -43.22882813 58.1234375 -42.31640625 57.671875 C-24.86564071 48.82252505 -5.55522443 37.66567329 1 18 C1.09523918 15.87672644 1.12986362 13.75040289 1.125 11.625 C1.12757813 10.50351562 1.13015625 9.38203125 1.1328125 8.2265625 C1.01470948 5.35735378 0.65782328 2.78791771 0 0 Z " fill="#EAC3AE" transform="translate(318,383)"/>
<path d="M0 0 C2.88454249 2.69620201 4.91337033 5.2505072 6.8046875 8.7109375 C7.30315186 9.61980713 7.80161621 10.52867676 8.31518555 11.46508789 C9.0872937 12.90549438 9.0872937 12.90549438 9.875 14.375 C10.67127808 15.84924438 10.67127808 15.84924438 11.48364258 17.35327148 C20.26580921 33.80011955 26.17090465 49.26008774 22.3515625 68.21875 C17.36116649 81.69708452 6.06156703 90.51274927 -6.5 96.4375 C-7.87671875 97.10555664 -7.87671875 97.10555664 -9.28125 97.78710938 C-11.51568324 98.86941298 -13.7549225 99.9400027 -16 101 C-16 100.01 -16 99.02 -16 98 C-13.8046875 96.1328125 -13.8046875 96.1328125 -10.875 94.125 C-9.86566406 93.41214844 -8.85632813 92.69929688 -7.81640625 91.96484375 C-6.88699219 91.31644531 -5.95757812 90.66804688 -5 90 C4.31546844 83.24171898 9.78113886 73.49809633 14 63 C14.36738281 62.18144531 14.73476563 61.36289062 15.11328125 60.51953125 C17.06801826 54.96532255 16.7330247 48.95473252 14.6875 43.5 C12.04217644 39.54014342 12.04217644 39.54014342 7.984375 37.30371094 C3.75046426 36.69860219 0.96091704 36.5203367 -2.5625 39.140625 C-3.72736114 40.15565132 -4.87252241 41.19360321 -6 42.25 C-7.28849654 43.36737068 -8.58299911 44.4778457 -9.8828125 45.58203125 C-10.55086914 46.15131348 -11.21892578 46.7205957 -11.90722656 47.30712891 C-33.77963657 65 -33.77963657 65 -43 65 C-43.66 63.35 -44.32 61.7 -45 60 C-44.30777344 59.68289063 -43.61554688 59.36578125 -42.90234375 59.0390625 C-25.46686795 50.72332832 -9.94484775 39.91958996 0 23 C1.15067488 19.54797535 1.13274508 16.82381728 1.125 13.1875 C1.12757813 11.98480469 1.13015625 10.78210938 1.1328125 9.54296875 C1.01006118 6.26839682 0.62001918 3.21327402 0 0 Z " fill="#EBC4AF" transform="translate(467,254)"/>
<path d="M0 0 C6.37469027 0.56271812 12.20249171 1.68729809 18.33984375 3.46875 C19.18801163 3.70911987 20.0361795 3.94948975 20.91004944 4.19714355 C22.68488215 4.70149333 24.45875719 5.2092246 26.23168945 5.72021484 C28.9525676 6.50434232 31.67614718 7.27843537 34.40039062 8.05078125 C36.1303715 8.54369854 37.86019511 9.03716818 39.58984375 9.53125 C40.40436508 9.76356323 41.21888641 9.99587646 42.05809021 10.23522949 C47.76417095 11.88208548 47.76417095 11.88208548 50 13 C49.76990234 14.47146484 49.76990234 14.47146484 49.53515625 15.97265625 C48.94295181 20.11808732 48.67071718 24.25870695 48.4375 28.4375 C48.37272461 29.53481445 48.37272461 29.53481445 48.30664062 30.65429688 C48.20183179 32.43604715 48.10054479 34.21800402 48 36 C46.98353394 35.68361572 46.98353394 35.68361572 45.9465332 35.36083984 C33.08424805 31.36367409 20.22045008 27.40590911 7.23754883 23.81591797 C1.10278714 22.10278714 1.10278714 22.10278714 0 21 C-0.08685603 19.43827255 -0.10702219 17.87270656 -0.09765625 16.30859375 C-0.09443359 15.36435547 -0.09121094 14.42011719 -0.08789062 13.44726562 C-0.07951172 12.45404297 -0.07113281 11.46082031 -0.0625 10.4375 C-0.05798828 9.44041016 -0.05347656 8.44332031 -0.04882812 7.41601562 C-0.03700007 4.94395151 -0.02051849 2.47200482 0 0 Z " fill="#C03A31" transform="translate(227,208)"/>
<path d="M0 0 C4.79076991 1.50336393 8.62584946 3.45020111 12.6875 6.375 C13.29110352 6.8076416 13.89470703 7.2402832 14.51660156 7.68603516 C21.76385672 13.06518531 29.10047107 19.76449318 33 28 C30.93871085 30.23029675 28.8760129 32.45926223 26.8125 34.6875 C25.9452832 35.62625977 25.9452832 35.62625977 25.06054688 36.58398438 C21.7745861 40.12985165 18.44429884 43.60759267 15 47 C8.56899477 42.76871371 2.49993811 37.9830442 -1 31 C-2.77103034 20.79723974 -1.3593665 10.19140872 0 0 Z " fill="#C03A30" transform="translate(195,388)"/>
<path d="M0 0 C8.26939823 1.44517828 16.48072046 3.11051717 24.6875 4.875 C25.91251221 5.13821045 27.13752441 5.4014209 28.3996582 5.67260742 C54.27699873 11.27699873 54.27699873 11.27699873 56 13 C56.07244053 15.01964199 56.08377188 17.04167124 56.0625 19.0625 C56.05347656 20.16722656 56.04445312 21.27195312 56.03515625 22.41015625 C56.02355469 23.26480469 56.01195312 24.11945313 56 25 C49.84773924 24.39822536 44.22754062 23.079294 38.3125 21.3125 C36.46507715 20.76743747 34.61741318 20.22319161 32.76953125 19.6796875 C31.35148193 19.26154785 31.35148193 19.26154785 29.90478516 18.83496094 C26.99160109 17.99758579 24.06867039 17.21417238 21.13671875 16.4453125 C20.19207764 16.19225342 19.24743652 15.93919434 18.27416992 15.6784668 C16.46653638 15.19565699 14.65556312 14.72513083 12.84106445 14.26879883 C7.65273389 12.85822621 4.39056957 11.42601298 1 7 C0.1875 3.1875 0.1875 3.1875 0 0 Z " fill="#CA4430" transform="translate(21,333)"/>
<path d="M0 0 C5.15058939 0.65222868 10.09563653 1.6587677 15.125 2.9375 C15.81464844 3.10701172 16.50429688 3.27652344 17.21484375 3.45117188 C20.93799654 4.3872992 24.47704403 5.47155801 28 7 C27.32421875 9.41796875 27.32421875 9.41796875 26 12 C23.70703125 12.86328125 23.70703125 12.86328125 20.8125 13.3125 C7.73271062 16.13886505 -2.25647596 22.98673625 -11 33 C-11.598125 33.66902344 -12.19625 34.33804688 -12.8125 35.02734375 C-13.93636351 36.29949481 -15.04846224 37.58213808 -16.1484375 38.875 C-17.55561735 40.48999122 -19.00660198 42.06693459 -20.4765625 43.625 C-25.59957616 49.06536849 -29.8161419 54.21335511 -33 61 C-34.65 60.67 -36.3 60.34 -38 60 C-36.64823583 50.5710277 -29.11465494 43.90707657 -22.546875 37.578125 C-19.125863 34.11513739 -16.18552813 30.33677803 -13.16796875 26.5234375 C-11.14518485 24.16898993 -9.11824468 22.35154294 -6.6875 20.4375 C-2.30651831 16.80854311 -0.33879697 12.47849811 1 7 C1.21702642 3.35618296 1.21702642 3.35618296 0 0 Z " fill="#ECC4AF" transform="translate(316,162)"/>
<path d="M0 0 C2.73007934 0.7886227 5.45904834 1.58078186 8.1875 2.375 C8.95642578 2.59671875 9.72535156 2.8184375 10.51757812 3.046875 C14.43408779 4.1898907 18.24356051 5.38902194 22 7 C20.55804355 10.97493866 18.65632711 14.33151813 16.375 17.88671875 C15.66859375 18.98951172 14.9621875 20.09230469 14.234375 21.22851562 C13.86763672 21.79610596 13.50089844 22.36369629 13.12304688 22.94848633 C11.99866682 24.6895644 10.88168594 26.43522101 9.765625 28.18164062 C4.27170567 36.72829433 4.27170567 36.72829433 2 39 C-0.97 38.01 -3.94 37.02 -7 36 C-6.69964844 35.15695312 -6.39929688 34.31390625 -6.08984375 33.4453125 C-5.70957031 32.34960938 -5.32929688 31.25390625 -4.9375 30.125 C-4.55464844 29.03445312 -4.17179687 27.94390625 -3.77734375 26.8203125 C-2.68292153 24.0768238 -2.68292153 24.0768238 -4 22 C-3.98840506 19.60274587 -3.89174263 17.20558814 -3.75 14.8125 C-3.68296875 13.51957031 -3.6159375 12.22664062 -3.546875 10.89453125 C-2.95450046 6.67597825 -1.83651409 3.80632356 0 0 Z " fill="#CE4632" transform="translate(283,223)"/>
<path d="M0 0 C21.14869622 1.44308751 21.14869622 1.44308751 29 6 C27.90042969 6.30292969 26.80085938 6.60585937 25.66796875 6.91796875 C17.96777456 9.08411201 10.67223929 11.36178463 3.46875 14.8984375 C1.00484105 15.99783991 -1.31767969 16.6282072 -3.9375 17.25 C-16.45073028 20.84212604 -30.78245302 34.69697592 -37.1875 46 C-37.82362665 47.31838463 -38.43320559 48.65035589 -39 50 C-39.433125 51.010625 -39.86625 52.02125 -40.3125 53.0625 C-40.6528125 54.0215625 -40.6528125 54.0215625 -41 55 C-41.99 55 -42.98 55 -44 55 C-43.91158724 53.45734969 -43.80340305 51.91582877 -43.6875 50.375 C-43.62949219 49.51648438 -43.57148438 48.65796875 -43.51171875 47.7734375 C-41.32027666 35.89615593 -28.86833205 26.2591589 -20 19 C-16.9283337 16.89773334 -13.80775607 14.88970721 -10.67578125 12.87890625 C-5.7498924 9.41999743 -2.55969023 5.40118122 0 0 Z " fill="#EDC4AF" transform="translate(269,152)"/>
<path d="M0 0 C3.86885998 4.86148092 6.36480741 10.40072413 9.125 15.9375 C9.67542969 17.02224609 10.22585938 18.10699219 10.79296875 19.22460938 C11.31761719 20.27326172 11.84226562 21.32191406 12.3828125 22.40234375 C12.86121582 23.35616943 13.33961914 24.30999512 13.83251953 25.29272461 C14.95045664 27.88511368 15.56493118 30.21941136 16 33 C0.62321789 29.42795991 -11.32510371 20.19878228 -21 8 C-21.33 7.34 -21.66 6.68 -22 6 C-14.67098882 4.19889833 -7.52592433 2.6377902 0 2 C0 1.34 0 0.68 0 0 Z " fill="#BD3A30" transform="translate(254,453)"/>
<path d="M0 0 C6.21429962 0.43320839 12.31365858 1.3256487 18.4375 2.4375 C19.13552734 2.55971924 19.83355469 2.68193848 20.55273438 2.80786133 C23.95256269 3.44470843 26.08001941 4.05334628 29 6 C25.48229833 7.46090343 21.9619216 8.66232925 18.3125 9.75 C16.54147641 10.29678594 14.77045724 10.84358626 12.99951172 11.390625 C11.60758178 11.81483222 10.21315514 12.23089699 8.81689453 12.640625 C-1.44450754 15.66217202 -9.83426201 18.817508 -18 26 C-18.81041748 26.70165283 -18.81041748 26.70165283 -19.63720703 27.41748047 C-21.39787338 28.95010424 -23.14042145 30.50042771 -24.875 32.0625 C-25.67901245 32.78590576 -25.67901245 32.78590576 -26.49926758 33.52392578 C-30.25444584 37.02152864 -33.12382859 40.74942196 -36 45 C-37.98 44.67 -39.96 44.34 -42 44 C-34.89574439 31.44590447 -23.89440821 22.10073484 -12.09375 14.12109375 C-5.79686354 9.91526771 -5.79686354 9.91526771 -1.6875 3.75 C-1.36136719 3.04359375 -1.03523438 2.3371875 -0.69921875 1.609375 C-0.46847656 1.07828125 -0.23773438 0.5471875 0 0 Z " fill="#ECC5B0" transform="translate(119,280)"/>
<path d="M0 0 C3.22039931 4.13544412 5.56365138 8.56202048 8 13.1875 C8.65742188 14.40663086 8.65742188 14.40663086 9.328125 15.65039062 C12.13495358 20.96392004 14.29488796 26.23744908 16 32 C1.33477519 31.0435723 -10.74796863 19.50032132 -20 9 C-20.33 8.01 -20.66 7.02 -21 6 C-18.06333774 5.32944715 -15.12577641 4.66340947 -12.1875 4 C-11.35412109 3.80921875 -10.52074219 3.6184375 -9.66210938 3.421875 C-8.85966797 3.24140625 -8.05722656 3.0609375 -7.23046875 2.875 C-6.49207764 2.70742188 -5.75368652 2.53984375 -4.99291992 2.3671875 C-3 2 -3 2 0 2 C0 1.34 0 0.68 0 0 Z " fill="#BE3A30" transform="translate(403,325)"/>
<path d="M0 0 C9.0110477 1.34238138 17.78796907 3.29994751 26.625 5.5 C34.72491693 7.50401671 42.80207643 9.43849075 51 11 C50.67 14.63 50.34 18.26 50 22 C41.70823521 20.54983854 33.4735328 18.89335304 25.25512695 17.078125 C23.86890607 16.77433164 22.48150354 16.47588407 21.09301758 16.18261719 C19.05260729 15.75124485 17.01647267 15.30321993 14.98046875 14.8515625 C13.78317139 14.59197754 12.58587402 14.33239258 11.35229492 14.06494141 C6.32945468 12.46930896 2.93338197 10.40007296 0 6 C-0.125 2.8125 -0.125 2.8125 0 0 Z " fill="#CB4530" transform="translate(171,205)"/>
<path d="M0 0 C5.61 0 11.22 0 17 0 C15.52439213 4.42682362 14.30797144 7.49886937 12.015625 11.39453125 C11.41741943 12.41949707 10.81921387 13.44446289 10.20288086 14.50048828 C9.55843018 15.59345215 8.91397949 16.68641602 8.25 17.8125 C6.87849977 20.15840519 5.51137872 22.50685028 4.14453125 24.85546875 C3.79681168 25.45194214 3.4490921 26.04841553 3.09083557 26.66296387 C-0.36876434 32.60851136 -3.72084263 38.61249063 -7.0625 44.625 C-12.25976541 53.9597943 -17.59278147 63.20630547 -23.00073242 72.42041016 C-28.14483731 81.20173867 -33.10950191 90.07540441 -38 99 C-39 96 -39 96 -38.38903141 94.16282368 C-38.04151546 93.47240073 -37.6939995 92.78197779 -37.33595276 92.07063293 C-36.94186218 91.27557846 -36.54777161 90.48052399 -36.14173889 89.66137695 C-35.69865891 88.79319336 -35.25557892 87.92500977 -34.79907227 87.03051758 C-34.34080048 86.11324387 -33.88252869 85.19597015 -33.41036987 84.25090027 C-31.88847864 81.21060994 -30.35252782 78.17765311 -28.81640625 75.14453125 C-27.76035568 73.04175227 -26.70518554 70.93853091 -25.65086365 68.83488464 C-22.86979107 63.29185554 -20.07675992 57.75493608 -17.28125 52.21917725 C-14.43224785 46.57226478 -11.59452167 40.91969333 -8.75585938 35.26757812 C-3.18163437 24.17279733 2.40523229 13.08443423 8 2 C5.36 1.67 2.72 1.34 0 1 C0 0.67 0 0.34 0 0 Z " fill="#8C8274" transform="translate(380,21)"/>
<path d="M0 0 C0.33 0 0.66 0 1 0 C1.1737205 4.73207005 1.30037162 9.46226568 1.38452148 14.19677734 C1.4196133 15.8051793 1.46730247 17.41335968 1.52807617 19.02099609 C2.02246332 32.44007592 2.02246332 32.44007592 -0.58935547 36.42480469 C-2.52734375 38.0859375 -2.52734375 38.0859375 -6 40 C-10.33333333 35.66666667 -14.66666667 31.33333333 -19 27 C-16.96142747 23.99788697 -14.91856819 20.99871419 -12.875 18 C-12.30523437 17.16082031 -11.73546875 16.32164062 -11.1484375 15.45703125 C-3.29102166 3.93877393 -3.29102166 3.93877393 0 0 Z " fill="#CE4834" transform="translate(343,258)"/>
<path d="M0 0 C0.99 0.33 1.98 0.66 3 1 C3.6875 3.0625 3.6875 3.0625 4 5 C2.7934375 5.8971875 2.7934375 5.8971875 1.5625 6.8125 C-2.38976891 10.0967798 -5.4132714 14.06193495 -8.609375 18.0625 C-12.24083686 22.52468842 -16.11136828 26.76203494 -20 31 C-21.32 30.01 -22.64 29.02 -24 28 C-22.4186938 24.26077871 -20.06769602 21.70350263 -17.3125 18.75 C-14.22362411 15.41187765 -11.15917299 12.06795152 -8.1875 8.625 C-5.57359678 5.61467543 -2.86178319 2.77506249 0 0 Z " fill="#E07C6D" transform="translate(384,280)"/>
<path d="M0 0 C4.875 0.875 4.875 0.875 6 2 C6.08790975 4.29151417 6.10694038 6.58572524 6.09765625 8.87890625 C6.0962413 9.5655687 6.09482635 10.25223114 6.09336853 10.95970154 C6.08775479 13.16067801 6.07520007 15.36155409 6.0625 17.5625 C6.05748676 19.05143083 6.05292355 20.54036324 6.04882812 22.02929688 C6.03778093 25.68623075 6.02050713 29.34310558 6 33 C3.53199953 31.84826645 1.95216435 30.95216435 0 29 C-0.22705078 26.11083984 -0.22705078 26.11083984 -0.1953125 22.4609375 C-0.18564453 20.50800781 -0.18564453 20.50800781 -0.17578125 18.515625 C-0.15906929 17.13541405 -0.14213939 15.75520571 -0.125 14.375 C-0.11497006 12.98698548 -0.10584423 11.59896411 -0.09765625 10.2109375 C-0.07401863 6.80711974 -0.04106867 3.40364494 0 0 Z " fill="#DC7768" transform="translate(189,385)"/>
<path d="M0 0 C-1.95519384 1.17192047 -3.9142539 2.3373929 -5.875 3.5 C-6.96554687 4.1496875 -8.05609375 4.799375 -9.1796875 5.46875 C-12 7 -12 7 -14 7 C-14 7.66 -14 8.32 -14 9 C-16.72761511 9.67363372 -19.456799 10.33909444 -22.1875 11 C-22.95642578 11.19078125 -23.72535156 11.3815625 -24.51757812 11.578125 C-32.09519573 13.39935498 -32.09519573 13.39935498 -36 13 C-37.8125 11.625 -37.8125 11.625 -39 10 C-39 9.34 -39 8.68 -39 8 C-38.34104736 7.86948242 -37.68209473 7.73896484 -37.00317383 7.60449219 C-20.40191438 4.36526148 -20.40191438 4.36526148 -4.1953125 -0.3984375 C-2 -1 -2 -1 0 0 Z " fill="#DD7C6D" transform="translate(417,318)"/>
<path d="M0 0 C0.12375079 4.7687841 0.21440646 9.53663077 0.2746582 14.30664062 C0.29977772 15.92855105 0.33388028 17.55034854 0.37719727 19.171875 C0.43796853 21.50549171 0.46623294 23.83761048 0.48828125 26.171875 C0.51408768 26.89493835 0.5398941 27.61800171 0.56648254 28.36297607 C0.56762695 30.42480469 0.56762695 30.42480469 0 34 C-2.53051758 36.48925781 -2.53051758 36.48925781 -5 38 C-5.09915614 33.39190905 -5.17160182 28.78444408 -5.21972656 24.17553711 C-5.23979558 22.60902077 -5.26705751 21.04257891 -5.30175781 19.47631836 C-5.35048754 17.21970206 -5.3730147 14.96407917 -5.390625 12.70703125 C-5.41127014 12.01100296 -5.43191528 11.31497467 -5.45318604 10.59785461 C-5.45485715 6.94554544 -5.06811587 5.10352155 -3.03808594 2.01831055 C-1 0 -1 0 0 0 Z " fill="#E07F70" transform="translate(344,258)"/>
<path d="M0 0 C0.99 0.33 1.98 0.66 3 1 C3.33 1.99 3.66 2.98 4 4 C2.33984375 6.453125 2.33984375 6.453125 -0.0625 9.25 C-0.8875 10.22066406 -1.7125 11.19132812 -2.5625 12.19140625 C-3.7690625 13.58166016 -3.7690625 13.58166016 -5 15 C-6.18752073 16.3958157 -7.37502472 17.79164564 -8.5625 19.1875 C-9.366875 20.115625 -10.17125 21.04375 -11 22 C-12.32 21.67 -13.64 21.34 -15 21 C-15 16.14840661 -14.12282821 15.59075233 -10.875 12.1875 C-10.05902344 11.31738281 -9.24304688 10.44726562 -8.40234375 9.55078125 C-7.60957031 8.70902344 -6.81679687 7.86726563 -6 7 C-3.97399525 4.68748953 -1.98828489 2.34515654 0 0 Z " fill="#DF7C6D" transform="translate(227,416)"/>
<path d="M0 0 C0.33 1.65 0.66 3.3 1 5 C-2.24543602 5.73044662 -5.49671383 6.43042788 -8.75 7.125 C-9.67039063 7.33253906 -10.59078125 7.54007812 -11.5390625 7.75390625 C-12.87324219 8.03427734 -12.87324219 8.03427734 -14.234375 8.3203125 C-15.05131836 8.49836426 -15.86826172 8.67641602 -16.70996094 8.85986328 C-19.47603965 9.02913078 -20.71520727 8.53805262 -23 7 C-23.66 6.01 -24.32 5.02 -25 4 C-21.58449704 3.32727653 -18.16742548 2.66288201 -14.75 2 C-13.78191406 1.80921875 -12.81382812 1.6184375 -11.81640625 1.421875 C-10.88183594 1.24140625 -9.94726562 1.0609375 -8.984375 0.875 C-8.12553711 0.70742188 -7.26669922 0.53984375 -6.38183594 0.3671875 C-4 0 -4 0 0 0 Z " fill="#DF7C6D" transform="translate(253,450)"/>
<path d="M0 0 C1.65 0.33 3.3 0.66 5 1 C4.52433594 2.48693359 4.52433594 2.48693359 4.0390625 4.00390625 C2.90616541 7.96904605 2.593831 11.81618284 2.375 15.9375 C2.33632813 16.62134766 2.29765625 17.30519531 2.2578125 18.00976562 C2.16477588 19.67279513 2.08136213 21.33635847 2 23 C0.35 22.67 -1.3 22.34 -3 22 C-3.08152344 19.45767658 -3.14073716 16.91800798 -3.1875 14.375 C-3.21263672 13.66214844 -3.23777344 12.94929687 -3.26367188 12.21484375 C-3.33024446 7.37723584 -2.55559453 4.25261662 0 0 Z " fill="#E07E6F" transform="translate(278,222)"/>
<path d="M0 0 C0.33 0.66 0.66 1.32 1 2 C1.99 2.33 2.98 2.66 4 3 C3.67 9.93 3.34 16.86 3 24 C1.02 23.67 -0.96 23.34 -3 23 C-3.433422 14.84524526 -2.29370226 7.82316305 0 0 Z " fill="#DB796A" transform="translate(224,205)"/>
<path d="M0 0 C2.97 0.495 2.97 0.495 6 1 C6 5.95 6 10.9 6 16 C3.03 15.505 3.03 15.505 0 15 C0 10.05 0 5.1 0 0 Z " fill="#DB7668" transform="translate(125,360)"/>
<path d="M0 0 C0.66 0.33 1.32 0.66 2 1 C0.27438183 4.18055114 -1.48431784 7.34154057 -3.25 10.5 C-3.74113281 11.40621094 -4.23226563 12.31242188 -4.73828125 13.24609375 C-5.46337891 14.53193359 -5.46337891 14.53193359 -6.203125 15.84375 C-6.64301758 16.63974609 -7.08291016 17.43574219 -7.53613281 18.25585938 C-8.01920898 18.83142578 -8.50228516 19.40699219 -9 20 C-10.32 20 -11.64 20 -13 20 C-9.56969083 9.05220476 -9.56969083 9.05220476 -7 5 C-4.4375 3.8125 -4.4375 3.8125 -2 3 C-1.34 2.01 -0.68 1.02 0 0 Z " fill="#887E71" transform="translate(338,122)"/>
<path d="M0 0 C2.475 0.495 2.475 0.495 5 1 C5 4.96 5 8.92 5 13 C3.35 13 1.7 13 0 13 C0 8.71 0 4.42 0 0 Z " fill="#DB7C6D" transform="translate(72,345)"/>
<path d="M0 0 C0.66 0.33 1.32 0.66 2 1 C0.57189248 3.15264005 -0.86668828 5.29680203 -2.3125 7.4375 C-2.71662109 8.04916016 -3.12074219 8.66082031 -3.53710938 9.29101562 C-6.66015625 13.88671875 -6.66015625 13.88671875 -10 15 C-9.33261732 11.50844913 -7.93386594 8.85877424 -6.125 5.8125 C-5.61195313 4.93207031 -5.09890625 4.05164063 -4.5703125 3.14453125 C-3 1 -3 1 0 0 Z " fill="#A0978E" transform="translate(314,259)"/>
<path d="M0 0 C1 3 1 3 0.28735352 4.80932617 C-0.09493408 5.46392822 -0.47722168 6.11853027 -0.87109375 6.79296875 C-1.48500977 7.8612793 -1.48500977 7.8612793 -2.11132812 8.95117188 C-2.54896484 9.68916016 -2.98660156 10.42714844 -3.4375 11.1875 C-3.87126953 11.93708984 -4.30503906 12.68667969 -4.75195312 13.45898438 C-5.82557231 15.31127243 -6.91162681 17.1563425 -8 19 C-9 16 -9 16 -7.3828125 12.4609375 C-6.64047576 11.09333505 -5.88740383 9.73151785 -5.125 8.375 C-4.55845703 7.33472656 -4.55845703 7.33472656 -3.98046875 6.2734375 C-1.19118642 1.19118642 -1.19118642 1.19118642 0 0 Z " fill="#867C6F" transform="translate(350,101)"/>
<path d="M0 0 C0 3.50492555 -0.56962239 5.79867869 -2 9 C-4.625 10.375 -4.625 10.375 -7 11 C-3.57894737 1.78947368 -3.57894737 1.78947368 0 0 Z " fill="#B0A79D" transform="translate(319,250)"/>
<path d="M0 0 C3.3 0.99 6.6 1.98 10 3 C9.67 3.66 9.34 4.32 9 5 C3.06 4.01 3.06 4.01 -3 3 C-2.01 2.67 -1.02 2.34 0 2 C0 1.34 0 0.68 0 0 Z " fill="#DEB09B" transform="translate(205,300)"/>
<path d="M0 0 C0 3.59857954 -0.95830515 5.09451118 -3 8 C-3.66 8 -4.32 8 -5 8 C-5.33 8.99 -5.66 9.98 -6 11 C-6 6.25452058 -4.8055762 4.71326262 -2 1 C-1.34 0.67 -0.68 0.34 0 0 Z " fill="#B3AAA0" transform="translate(327,238)"/>
<path d="M0 0 C0.33 0 0.66 0 1 0 C1 2.97 1 5.94 1 9 C-0.32 8.34 -1.64 7.68 -3 7 C-2.01 4.69 -1.02 2.38 0 0 Z " fill="#CE7668" transform="translate(279,251)"/>
</svg>
