<?xml version="1.0" standalone="no"?>
<!DOCTYPE svg PUBLIC "-//W3C//DTD SVG 20010904//EN"
 "http://www.w3.org/TR/2001/REC-SVG-20010904/DTD/svg10.dtd">
<svg version="1.0" xmlns="http://www.w3.org/2000/svg"
 width="512.000000pt" height="512.000000pt" viewBox="0 0 512.000000 512.000000"
 preserveAspectRatio="xMidYMid meet">

<g transform="translate(0.000000,512.000000) scale(0.100000,-0.100000)"
fill="#000000" stroke="none">
<path d="M2364 5050 c-595 -50 -1142 -302 -1565 -721 -387 -384 -635 -884
-715 -1444 -24 -164 -24 -486 0 -650 41 -285 116 -531 237 -775 374 -755 1069
-1255 1914 -1376 164 -24 486 -24 650 0 564 81 1063 329 1452 723 379 385 620
875 699 1428 24 164 24 486 0 650 -67 467 -250 893 -534 1243 -399 494 -976
819 -1607 906 -139 19 -400 27 -531 16z m1035 -1170 c220 -151 400 -278 401
-281 0 -7 -794 -557 -816 -566 -12 -4 -14 24 -14 161 l0 166 -595 0 -595 0 0
-652 -1 -653 -227 -156 c-125 -86 -230 -154 -234 -152 -5 2 -8 472 -8 1044 l0
1039 830 0 830 0 0 166 c0 141 2 165 15 162 8 -2 194 -127 414 -278z m411
-1551 l0 -1039 -830 0 -830 0 0 -166 c0 -141 -2 -165 -15 -162 -18 4 -814 550
-815 559 0 7 794 557 816 566 12 4 14 -24 14 -161 l0 -166 595 0 595 0 0 653
1 652 227 156 c125 86 230 154 235 152 4 -2 7 -472 7 -1044z"/>
</g>
</svg>
