<?xml version="1.0" encoding="UTF-8"?>
<svg version="1.1" xmlns="http://www.w3.org/2000/svg" width="512" height="512">
<path d="M0 0 C5.77367034 4.98410859 9.5160355 12.05551323 13.515625 18.453125 C17.31108072 24.48120173 20.96343724 29.0698737 27.828125 31.578125 C33.604179 32.55511555 37.86378608 31.73566333 42.66796875 28.40234375 C45.36985593 26.12064155 47.80904649 23.61588476 50.265625 21.078125 C57.05270674 14.14314635 61.95426494 10.39004414 71.890625 9.890625 C84.97632611 10.3994409 95.9246109 16.14875675 106.80615234 23.06201172 C113.76965211 27.4310987 120.27645805 30.25860065 128.640625 29.328125 C129.71957031 29.21984375 130.79851562 29.1115625 131.91015625 29 C134.69247167 28.65504068 134.69247167 28.65504068 136.81640625 28.05078125 C142.87548877 26.62719099 149.6923581 26.58651894 155.328125 29.203125 C163.78581549 37.23793097 167.38116604 45.73492766 168.953125 57.328125 C169.99070551 63.12671777 171.23057726 65.71471331 176.015625 69.203125 C177.93103352 70.36533903 179.86732807 71.49424003 181.828125 72.578125 C183.05990539 73.40759002 184.28935323 74.24053758 185.515625 75.078125 C188.69271097 77.04025171 192.00438424 78.62097426 195.37915039 80.21386719 C228.28514069 95.9095791 249.74867844 128.10179059 261.828125 161.578125 C262.86426267 164.64126677 263.81289541 167.71957964 264.703125 170.828125 C264.89430908 171.48748047 265.08549316 172.14683594 265.2824707 172.82617188 C268.65310787 185.4702688 269.17812702 198.32712874 269.14379883 211.32861328 C269.14064551 213.81197383 269.1641843 216.29412964 269.18945312 218.77734375 C269.24926767 233.68984602 267.63777772 248.50611917 263.078125 262.765625 C262.82208496 263.58675781 262.56604492 264.40789062 262.30224609 265.25390625 C255.95038373 285.0407807 246.01242603 305.16836749 227.828125 316.578125 C227.21195312 316.990625 226.59578125 317.403125 225.9609375 317.828125 C216.53657417 323.10870212 204.15129734 320.94906917 193.87890625 319.89453125 C174.85884331 317.95641466 156.01492713 317.24448941 136.890625 317.203125 C135.70725555 317.19563232 134.52388611 317.18813965 133.30465698 317.18041992 C91.92616228 316.96527857 49.54860453 322.34268439 12.828125 342.578125 C12.2245517 342.90680069 11.62097839 343.23547638 10.99911499 343.57411194 C0.56123039 349.26235746 -9.38646486 355.49005616 -19.234375 362.140625 C-20.67948094 363.11008987 -22.12479659 364.07924222 -23.5703125 365.0480957 C-31.9949796 370.70581877 -40.35730788 376.44720844 -48.671875 382.265625 C-101.56225978 419.26621447 -101.56225978 419.26621447 -129.0390625 415.1484375 C-143.49914545 412.04162923 -154.08503503 404.93676604 -164.171875 394.578125 C-164.82671875 393.92070312 -165.4815625 393.26328125 -166.15625 392.5859375 C-203.06135432 353.14149114 -210.8818413 290.18618112 -209.26300049 238.83813477 C-208.93139407 230.61394032 -207.8258235 222.63003036 -206.171875 214.578125 C-206.00026855 213.68899414 -205.82866211 212.79986328 -205.65185547 211.88378906 C-198.37697191 174.63170434 -182.06347872 139.81650046 -156.2421875 111.8359375 C-154.38758634 109.81337246 -152.62152339 107.74328516 -150.859375 105.640625 C-141.56521085 95.05501663 -128.86381111 82.92409305 -116.171875 76.578125 C-116.21828125 75.26199219 -116.2646875 73.94585937 -116.3125 72.58984375 C-116.6157265 60.33249555 -116.39508345 49.49434696 -108.171875 39.578125 C-100.95382869 34.1277635 -94.97336767 34.04192184 -86.171875 34.578125 C-81.50438967 35.34145265 -76.94557775 36.42963429 -72.359375 37.578125 C-59.79284189 41.25831544 -59.79284189 41.25831544 -47.171875 39.578125 C-45.20257684 34.81898778 -44.01614767 29.97204118 -42.74316406 24.98681641 C-40.03773132 14.50521181 -37.48461287 6.86422306 -28.171875 0.578125 C-20.11845673 -3.72313248 -8.03175746 -4.79205697 0 0 Z " fill="#FEA862" transform="translate(224.171875,47.421875)"/>
<path d="M0 0 C5.77367034 4.98410859 9.5160355 12.05551323 13.515625 18.453125 C17.31108072 24.48120173 20.96343724 29.0698737 27.828125 31.578125 C33.604179 32.55511555 37.86378608 31.73566333 42.66796875 28.40234375 C45.36985593 26.12064155 47.80904649 23.61588476 50.265625 21.078125 C57.05270674 14.14314635 61.95426494 10.39004414 71.890625 9.890625 C84.97632611 10.3994409 95.9246109 16.14875675 106.80615234 23.06201172 C113.76965211 27.4310987 120.27645805 30.25860065 128.640625 29.328125 C129.71957031 29.21984375 130.79851562 29.1115625 131.91015625 29 C134.69247167 28.65504068 134.69247167 28.65504068 136.81640625 28.05078125 C142.87548877 26.62719099 149.6923581 26.58651894 155.328125 29.203125 C165.95574182 39.29936098 168.6378455 51.54609047 170.828125 65.578125 C166.04333351 64.65203632 161.6789238 63.60926512 157.1953125 61.69140625 C151.84113787 59.50625172 146.41892375 57.96813644 140.828125 56.515625 C138.97361853 56.0260249 137.11944917 55.53514601 135.265625 55.04296875 C134.35554688 54.80304199 133.44546875 54.56311523 132.5078125 54.31591797 C129.94582048 53.61052986 127.42263344 52.82494049 124.890625 52.01953125 C113.6868603 48.66729284 102.5008621 48.13859766 90.890625 48.140625 C90.12176971 48.13922516 89.35291443 48.13782532 88.5607605 48.13638306 C75.78080792 48.15546826 63.98209307 49.36132159 51.828125 53.578125 C50.68214844 53.97386719 49.53617188 54.36960938 48.35546875 54.77734375 C38.61008929 58.56232338 28.48486223 63.35891561 20.828125 70.578125 C21.50875 71.114375 22.189375 71.650625 22.890625 72.203125 C23.86 72.986875 24.829375 73.770625 25.828125 74.578125 C26.39402344 74.97902344 26.95992187 75.37992187 27.54296875 75.79296875 C33.12780226 80.00909033 36.15984995 84.77156281 37.828125 91.578125 C39.02316721 102.67527316 38.54591707 114.00666406 34.828125 124.578125 C34.57289063 125.42117187 34.31765625 126.26421875 34.0546875 127.1328125 C31.54469259 134.52463236 26.91883659 139.77503395 21.828125 145.578125 C-6.73402373 178.60886796 -25.15402066 218.83412919 -37.171875 260.578125 C-37.47335449 261.62145996 -37.77483398 262.66479492 -38.08544922 263.73974609 C-39.80563646 269.70564202 -41.51294798 275.67507784 -43.20703125 281.6484375 C-43.53050537 282.78877441 -43.85397949 283.92911133 -44.18725586 285.10400391 C-44.8505946 287.44452219 -45.51284482 289.78534922 -46.17407227 292.12646484 C-56.15943242 327.33098055 -68.9242652 366.41765766 -102.57421875 386.171875 C-103.43144531 386.6359375 -104.28867188 387.1 -105.171875 387.578125 C-105.97753906 388.0215625 -106.78320312 388.465 -107.61328125 388.921875 C-111.08094325 390.65863972 -113.7869741 391.54375885 -117.671875 391.890625 C-125.96959828 388.77897877 -130.78402733 381.41258514 -134.39453125 373.64453125 C-135.171875 371.578125 -135.171875 371.578125 -135.171875 369.578125 C-136.120625 369.660625 -137.069375 369.743125 -138.046875 369.828125 C-144.88547619 369.78659503 -151.12862363 366.9297917 -156.109375 362.328125 C-161.27052302 356.59486859 -162.80378148 350.53879852 -162.51171875 342.8984375 C-161.69198981 337.3016675 -158.18698455 334.45489292 -153.921875 331.203125 C-152.67873372 330.31840767 -151.43099493 329.43994981 -150.171875 328.578125 C-150.58179688 327.84207031 -150.99171875 327.10601562 -151.4140625 326.34765625 C-151.95289063 325.37183594 -152.49171875 324.39601563 -153.046875 323.390625 C-153.58054688 322.42769531 -154.11421875 321.46476562 -154.6640625 320.47265625 C-156.94492503 316.09410927 -158.44562671 312.74880739 -158.296875 307.765625 C-158.26980469 306.58033203 -158.26980469 306.58033203 -158.2421875 305.37109375 C-158.21898437 304.77941406 -158.19578125 304.18773437 -158.171875 303.578125 C-158.7184375 303.35382813 -159.265 303.12953125 -159.828125 302.8984375 C-169.86940436 297.24185013 -176.04093624 287.3390826 -179.171875 276.578125 C-179.7388729 270.29696641 -179.99445581 263.95967067 -177.671875 258.015625 C-175.04849982 251.12608145 -174.75714157 244.0865013 -177.53125 237.20703125 C-179.28955882 233.90436711 -181.17479563 230.74149872 -183.171875 227.578125 C-184.29873852 225.68339873 -185.42391361 223.78766658 -186.546875 221.890625 C-187.02898437 221.10300781 -187.51109375 220.31539062 -188.0078125 219.50390625 C-191.46886871 213.77806493 -190.6481622 207.07173078 -190.171875 200.578125 C-188.85249314 195.57201328 -186.24835922 191.85607994 -182.19238281 188.57714844 C-177.7933512 186.40208351 -172.63309214 187.25584987 -167.859375 187.515625 C-159.86147049 187.92710796 -153.08260002 188.15230234 -146.171875 183.578125 C-144.08805894 179.41049287 -145.02050862 175.1199161 -146.23046875 170.7890625 C-146.67933219 169.50659554 -147.13910778 168.22789895 -147.609375 166.953125 C-152.25482706 153.99270413 -154.33130119 136.65551254 -148.42578125 123.75390625 C-142.06523952 112.7170784 -133.09865253 104.50000645 -120.92578125 100.515625 C-116.97036904 99.52780093 -113.30172523 99.1690905 -109.234375 98.953125 C-108.55052734 98.91445312 -107.86667969 98.87578125 -107.16210938 98.8359375 C-105.49907987 98.74290088 -103.83551653 98.65948713 -102.171875 98.578125 C-102.73455078 97.90330078 -102.73455078 97.90330078 -103.30859375 97.21484375 C-107.68268369 91.71693222 -110.47680023 86.03865884 -113.171875 79.578125 C-113.49414062 78.93359375 -113.81640625 78.2890625 -114.1484375 77.625 C-117.9923896 69.36229921 -117.33851779 58.9542911 -114.421875 50.515625 C-111.55228746 43.7530306 -108.66151447 39.30621576 -102.171875 35.578125 C-92.53301307 32.36517102 -81.8846348 35.19278075 -72.359375 37.578125 C-59.79284189 41.25831544 -59.79284189 41.25831544 -47.171875 39.578125 C-45.20257684 34.81898778 -44.01614767 29.97204118 -42.74316406 24.98681641 C-40.03773132 14.50521181 -37.48461287 6.86422306 -28.171875 0.578125 C-20.11845673 -3.72313248 -8.03175746 -4.79205697 0 0 Z " fill="#77A405" transform="translate(224.171875,47.421875)"/>
<path d="M0 0 C5.77367034 4.98410859 9.5160355 12.05551323 13.515625 18.453125 C17.31108072 24.48120173 20.96343724 29.0698737 27.828125 31.578125 C33.604179 32.55511555 37.86378608 31.73566333 42.66796875 28.40234375 C45.36985593 26.12064155 47.80904649 23.61588476 50.265625 21.078125 C57.05270674 14.14314635 61.95426494 10.39004414 71.890625 9.890625 C84.97632611 10.3994409 95.9246109 16.14875675 106.80615234 23.06201172 C113.76965211 27.4310987 120.27645805 30.25860065 128.640625 29.328125 C129.71957031 29.21984375 130.79851562 29.1115625 131.91015625 29 C134.69247167 28.65504068 134.69247167 28.65504068 136.81640625 28.05078125 C142.87548877 26.62719099 149.6923581 26.58651894 155.328125 29.203125 C165.95574182 39.29936098 168.6378455 51.54609047 170.828125 65.578125 C166.04333351 64.65203632 161.6789238 63.60926512 157.1953125 61.69140625 C151.84113787 59.50625172 146.41892375 57.96813644 140.828125 56.515625 C138.97361853 56.0260249 137.11944917 55.53514601 135.265625 55.04296875 C134.35554688 54.80304199 133.44546875 54.56311523 132.5078125 54.31591797 C129.94582048 53.61052986 127.42263344 52.82494049 124.890625 52.01953125 C113.6868603 48.66729284 102.5008621 48.13859766 90.890625 48.140625 C90.12176971 48.13922516 89.35291443 48.13782532 88.5607605 48.13638306 C75.78080792 48.15546826 63.98209307 49.36132159 51.828125 53.578125 C50.68214844 53.97386719 49.53617188 54.36960938 48.35546875 54.77734375 C38.61008929 58.56232338 28.48486223 63.35891561 20.828125 70.578125 C21.529375 71.135 22.230625 71.691875 22.953125 72.265625 C25.94156761 74.66937232 28.88752738 77.11622932 31.828125 79.578125 C28.828125 80.578125 28.828125 80.578125 25.078125 80.328125 C15.22395891 80.23151553 2.94350092 84.76046355 -4.171875 91.578125 C-13.03660005 102.82212691 -12.50266243 115.09135623 -12.65039062 128.83007812 C-12.83380314 137.40573158 -13.22318622 147.74814899 -19.171875 154.578125 C-21.734375 155.703125 -21.734375 155.703125 -25.171875 155.578125 C-29.43229207 153.88680365 -33.36149141 151.59870031 -37.34765625 149.3515625 C-41.79514014 146.95078479 -44.99708476 145.74646228 -50.171875 146.578125 C-55.6501304 149.00258831 -59.49782495 152.12306289 -62.171875 157.578125 C-63.85216066 164.29926765 -62.5042399 169.14765001 -60.171875 175.578125 C-61.94140625 175.4453125 -61.94140625 175.4453125 -64.171875 174.578125 C-66.05859375 171.9609375 -66.05859375 171.9609375 -67.859375 168.703125 C-68.76236328 167.09824219 -68.76236328 167.09824219 -69.68359375 165.4609375 C-72.42643843 160.14802576 -72.83368733 155.47009311 -72.171875 149.578125 C-69.4540524 144.14247979 -64.99684785 139.63399777 -59.171875 137.578125 C-51.1167758 136.63046627 -45.15924932 140.37448213 -38.484375 144.390625 C-35.65619715 145.96238238 -34.14154414 146.58155868 -30.859375 146.953125 C-26.5970401 144.77239552 -25.61242342 140.97364455 -24.171875 136.578125 C-23.07793147 133.02130311 -23.00112413 129.65248726 -22.92578125 125.94140625 C-22.87647461 123.99137695 -22.87647461 123.99137695 -22.82617188 122.00195312 C-22.77904258 119.95292763 -22.73463173 117.90392234 -22.69506836 115.85473633 C-22.51565779 106.97982168 -21.99163987 99.03741961 -19.171875 90.578125 C-29.5068812 86.10028866 -38.15986521 85.0532884 -48.9453125 88.6484375 C-52.03058553 89.93667431 -54.47692857 91.60621298 -57.171875 93.578125 C-58.161875 93.908125 -59.151875 94.238125 -60.171875 94.578125 C-61.31101526 96.52136427 -62.1094273 98.37577822 -62.7734375 100.52734375 C-64.90322063 103.65062906 -68.04723716 104.385448 -71.484375 105.578125 C-75.45334472 106.97939074 -78.61776651 108.12152058 -81.90234375 110.828125 C-84.171875 112.578125 -84.171875 112.578125 -86.25390625 112.51953125 C-88.45187246 111.44069244 -90.02856956 110.13916944 -91.859375 108.515625 C-95.59415466 105.64907825 -98.07673092 104.83329051 -102.75390625 105.1875 C-114.59895884 107.10107877 -126.03864434 111.71159002 -133.609375 121.421875 C-140.64847652 131.98052728 -142.97347844 145.21227283 -140.80712891 157.67675781 C-139.52402137 163.61914106 -137.81664425 169.43948897 -136.0625 175.2578125 C-134.92999763 179.4798608 -134.50021778 183.24593595 -135.171875 187.578125 C-137.76761135 191.47172953 -140.72098542 192.48215326 -145.171875 193.578125 C-150.46562797 193.76114112 -155.75977104 193.52607232 -161.05078125 193.32421875 C-167.70786555 193.03718024 -167.70786555 193.03718024 -173.8046875 195.296875 C-178.57570084 199.89468324 -180.34424414 205.91579709 -180.734375 212.453125 C-180.24178355 222.62275484 -174.49377301 230.77882262 -168.9140625 238.90625 C-164.480107 245.70630731 -164.89510264 251.86682525 -166.171875 259.578125 C-166.66750521 261.66759762 -167.18850292 263.75121171 -167.734375 265.828125 C-170.15721676 275.12563105 -169.43669814 283.70144335 -164.70703125 292.21484375 C-162.70896222 295.24858671 -160.74302141 298.00697859 -158.171875 300.578125 C-158.171875 301.568125 -158.171875 302.558125 -158.171875 303.578125 C-165.19336888 300.69666289 -172.31334998 292.99060573 -175.734375 286.265625 C-179.29903254 277.12150347 -181.39224028 267.53693898 -177.671875 258.015625 C-175.04849982 251.12608145 -174.75714157 244.0865013 -177.53125 237.20703125 C-179.28955882 233.90436711 -181.17479563 230.74149872 -183.171875 227.578125 C-184.29873852 225.68339873 -185.42391361 223.78766658 -186.546875 221.890625 C-187.02898437 221.10300781 -187.51109375 220.31539062 -188.0078125 219.50390625 C-191.46886871 213.77806493 -190.6481622 207.07173078 -190.171875 200.578125 C-188.85249314 195.57201328 -186.24835922 191.85607994 -182.19238281 188.57714844 C-177.7933512 186.40208351 -172.63309214 187.25584987 -167.859375 187.515625 C-159.86147049 187.92710796 -153.08260002 188.15230234 -146.171875 183.578125 C-144.08805894 179.41049287 -145.02050862 175.1199161 -146.23046875 170.7890625 C-146.67933219 169.50659554 -147.13910778 168.22789895 -147.609375 166.953125 C-152.25482706 153.99270413 -154.33130119 136.65551254 -148.42578125 123.75390625 C-142.06523952 112.7170784 -133.09865253 104.50000645 -120.92578125 100.515625 C-116.97036904 99.52780093 -113.30172523 99.1690905 -109.234375 98.953125 C-108.55052734 98.91445312 -107.86667969 98.87578125 -107.16210938 98.8359375 C-105.49907987 98.74290088 -103.83551653 98.65948713 -102.171875 98.578125 C-102.73455078 97.90330078 -102.73455078 97.90330078 -103.30859375 97.21484375 C-107.68268369 91.71693222 -110.47680023 86.03865884 -113.171875 79.578125 C-113.49414062 78.93359375 -113.81640625 78.2890625 -114.1484375 77.625 C-117.9923896 69.36229921 -117.33851779 58.9542911 -114.421875 50.515625 C-111.55228746 43.7530306 -108.66151447 39.30621576 -102.171875 35.578125 C-92.53301307 32.36517102 -81.8846348 35.19278075 -72.359375 37.578125 C-59.79284189 41.25831544 -59.79284189 41.25831544 -47.171875 39.578125 C-45.20257684 34.81898778 -44.01614767 29.97204118 -42.74316406 24.98681641 C-40.03773132 14.50521181 -37.48461287 6.86422306 -28.171875 0.578125 C-20.11845673 -3.72313248 -8.03175746 -4.79205697 0 0 Z " fill="#89B304" transform="translate(224.171875,47.421875)"/>
<path d="M0 0 C0.11214844 1.43279297 0.11214844 1.43279297 0.2265625 2.89453125 C1.80056646 18.37223685 8.91014986 27.65079263 19 39 C26.793294 47.84268804 26.793294 47.84268804 27.27734375 52.89453125 C26.9705178 56.33011755 26.08089824 58.60338799 24.5625 61.6875 C21.28475689 68.4390905 19.69369654 73.93287382 21.61328125 81.37890625 C24.69170491 89.39365683 30.41413222 92.94642669 38 96.375 C39.32898581 96.92724748 40.66080164 97.47300065 42 98 C33.12469573 124.17344632 16.87490108 150.38154526 -8 164 C-9.21042969 164.66708984 -9.21042969 164.66708984 -10.4453125 165.34765625 C-13.91179366 167.08089683 -16.61756927 167.9658544 -20.5 168.3125 C-28.79772328 165.20085377 -33.61215233 157.83446014 -37.22265625 150.06640625 C-38 148 -38 148 -38 146 C-38.94875 146.0825 -39.8975 146.165 -40.875 146.25 C-47.71360119 146.20847003 -53.95674863 143.3516667 -58.9375 138.75 C-64.09864802 133.01674359 -65.63190648 126.96067352 -65.33984375 119.3203125 C-64.52011481 113.7235425 -61.01510955 110.87676792 -56.75 107.625 C-55.50685872 106.74028267 -54.25911993 105.86182481 -53 105 C-53.40992187 104.26394531 -53.81984375 103.52789062 -54.2421875 102.76953125 C-54.78101562 101.79371094 -55.31984375 100.81789063 -55.875 99.8125 C-56.40867187 98.84957031 -56.94234375 97.88664062 -57.4921875 96.89453125 C-61.16408381 89.84563186 -62.49486224 83.36791442 -60.3125 75.53125 C-57.86864544 69.58453724 -54.35654339 63.48584286 -48.30859375 60.80859375 C-47.54675781 60.54175781 -46.78492187 60.27492188 -46 60 C-46.05220703 58.81857422 -46.05220703 58.81857422 -46.10546875 57.61328125 C-46.52130239 40.88092768 -42.06740746 27.51562978 -30.4765625 15.28515625 C-23.2073431 8.5777535 -10.3557566 0 0 0 Z " fill="#A02E14" transform="translate(127,271)"/>
<path d="M0 0 C3.92494292 5.88741438 3.16380994 13.83158756 3.203125 20.7421875 C3.20882507 21.55003693 3.21452515 22.35788635 3.22039795 23.19021606 C3.2297801 24.89274822 3.23635465 26.59529798 3.24023438 28.29785156 C3.24984589 30.83433034 3.28089519 33.36996376 3.3125 35.90625 C3.4107705 50.93990063 1.84804212 65.80793814 -2.75 80.1875 C-3.00604004 81.00863281 -3.26208008 81.82976562 -3.52587891 82.67578125 C-9.87774127 102.4626557 -19.81569897 122.59024249 -38 134 C-38.61617188 134.4125 -39.23234375 134.825 -39.8671875 135.25 C-49.29155083 140.53057712 -61.67682766 138.37094417 -71.94921875 137.31640625 C-90.96928169 135.37828966 -109.81319787 134.66636441 -128.9375 134.625 C-130.12086945 134.61750732 -131.30423889 134.61001465 -132.52346802 134.60229492 C-173.90196272 134.38715357 -216.27952047 139.76455939 -253 160 C-253.6035733 160.32867569 -254.20714661 160.65735138 -254.82901001 160.99598694 C-265.26689461 166.68423246 -275.21458986 172.91193116 -285.0625 179.5625 C-286.50760594 180.53196487 -287.95292159 181.50111722 -289.3984375 182.4699707 C-297.8231046 188.12769377 -306.18543288 193.86908344 -314.5 199.6875 C-367.39038478 236.68808947 -367.39038478 236.68808947 -394.8671875 232.5703125 C-409.32727045 229.46350423 -419.91316003 222.35864104 -430 212 C-430.65484375 211.34257812 -431.3096875 210.68515625 -431.984375 210.0078125 C-451.62071018 189.02035334 -461.72024623 158.06471613 -468.9375 130.875 C-469.23237305 129.77317383 -469.52724609 128.67134766 -469.83105469 127.53613281 C-471.65461093 120.36116539 -472.62201718 113.39184862 -473 106 C-472.67 106 -472.34 106 -472 106 C-471.731875 107.10472656 -471.46375 108.20945312 -471.1875 109.34765625 C-464.05697058 137.96655433 -454.08749087 168.18857128 -434.62890625 190.94921875 C-433 193 -433 193 -432.02734375 195.14453125 C-430.71331132 197.51778374 -429.4343109 197.89184354 -427 199 C-425.80588058 200.05299622 -424.64068024 201.13933767 -423.5 202.25 C-413.46470825 211.15377087 -399.8404367 215.73628499 -386.44921875 215.21875 C-357.28700556 212.61415042 -332.62335737 192.50761922 -309.52026367 176.25561523 C-293.75044056 165.18193562 -277.72575739 154.58064301 -261 145 C-260.21947266 144.55140625 -259.43894531 144.1028125 -258.63476562 143.640625 C-220.8011728 122.14785714 -177.86186785 116.58772815 -134.97314453 116.73925781 C-131.39989005 116.74992569 -127.82714511 116.73932231 -124.25390625 116.7265625 C-104.32113602 116.71476503 -84.4421051 117.57937295 -64.72265625 120.609375 C-55.41244174 121.94513031 -47.59365738 120.59846749 -39.546875 115.421875 C-37.269603 113.70230226 -35.12788935 111.90048133 -33 110 C-32.11054687 109.24976563 -32.11054687 109.24976563 -31.203125 108.484375 C-17.59331826 96.12317438 -9.25002307 75.47655225 -5 58 C-4.82484863 57.30181152 -4.64969727 56.60362305 -4.46923828 55.88427734 C-0.0242309 37.51805034 -0.18000741 18.78594532 0 0 Z " fill="#F49853" transform="translate(490,230)"/>
<path d="M0 0 C0.495 0.99 0.495 0.99 1 2 C0.34938905 3.67299959 -0.32033324 5.33859237 -1 7 C-1.87276826 11.28993599 -2.13340351 15.38949443 -2.17578125 19.76171875 C-2.19962891 21.04626953 -2.22347656 22.33082031 -2.24804688 23.65429688 C-2.2943822 26.32392454 -2.32211508 28.99194651 -2.34179688 31.66210938 C-2.53106009 40.47825393 -3.01803755 49.3114802 -8.95654297 56.30371094 C-11 58 -11 58 -13.90234375 57.93359375 C-17.10334419 56.96885339 -19.67608378 55.74179478 -22.5625 54.0625 C-28.45490078 50.66078778 -33.04074933 48.17432619 -40 49 C-45.4176399 51.36387658 -49.52597651 54.53653146 -52 60 C-53.71872373 68.42777687 -50.38587116 74.96762594 -46 82 C-43.24212005 86.0018082 -40.33889434 89.88733838 -37.390625 93.75 C-32.89889155 99.73614439 -32.89889155 99.73614439 -33.25 104.125 C-34 107 -34 107 -36 109 C-42.13652411 109.71330537 -47.9239104 108.94426979 -53.8671875 107.453125 C-58.99622017 106.3634404 -63.33270837 106.4996652 -68 109 C-70.79968259 108.74288629 -71.77557375 108.25986197 -73.6328125 106.109375 C-74.12523437 105.33078125 -74.61765625 104.5521875 -75.125 103.75 C-75.62257812 102.98171875 -76.12015625 102.2134375 -76.6328125 101.421875 C-79.25481207 96.77719005 -80.24925251 93.35892888 -80 88 C-80.59425781 87.86464844 -81.18851563 87.72929687 -81.80078125 87.58984375 C-91.70954967 85.0163378 -101.38992333 79.87447668 -107 71 C-110.06460418 64.73341282 -109.95922767 57.32702702 -108.46484375 50.5859375 C-105.4437384 42.03439339 -100.71559644 37.36222488 -93 33 C-89.86393597 31.95464532 -87.27195766 31.96508156 -83.99658203 31.96435547 C-77.04134544 32.11015965 -77.04134544 32.11015965 -70.93359375 29.40234375 C-70.04882679 28.03161523 -69.21329926 26.62803807 -68.42578125 25.19921875 C-64.43192467 19.03883174 -56.8225295 15.99234945 -49.9375 14.375 C-49.03902344 14.21773437 -48.14054687 14.06046875 -47.21484375 13.8984375 C-44.75664382 13.18947127 -44.75664382 13.18947127 -43.82421875 10.5703125 C-43.55222656 9.72210938 -43.28023438 8.87390625 -43 8 C-31.96325129 -4.98441024 -15.07869198 -7.62280738 0 0 Z " fill="#9F2E13" transform="translate(205,137)"/>
<path d="M0 0 C1.2360498 0.36134033 1.2360498 0.36134033 2.49707031 0.72998047 C7.37863683 2.1833349 12.22006403 3.73907233 17.04980469 5.35546875 C19.43520916 6.14383477 21.83750406 6.86184111 24.25 7.5625 C24.99507812 7.79066406 25.74015625 8.01882812 26.5078125 8.25390625 C28.45152604 8.83580168 30.4073913 9.37715475 32.3671875 9.90234375 C43.04620615 13.02168288 51.1403193 18.35232894 60 25 C56.91544503 26.54227748 54.89426411 25.17818414 51.6875 24.125 C43.00513877 21.29358003 35.54616784 20.8172367 26.4375 20.8125 C25.22513672 20.80025391 24.01277344 20.78800781 22.76367188 20.77539062 C-8.64437741 20.72486829 -37.90672127 35.0583715 -63 53 C-63.6506543 53.46132324 -64.30130859 53.92264648 -64.97167969 54.39794922 C-73.39435695 60.40862248 -81.24001744 66.76604391 -88.66040039 73.98754883 C-92.80834493 78 -92.80834493 78 -95 78 C-94.71125 77.01644531 -94.4225 76.03289062 -94.125 75.01953125 C-90.48231698 61.7747358 -87.61223039 46.02846258 -93.5 33.0625 C-96.06564187 28.78439883 -98.96003952 25.84778563 -103.16796875 23.18359375 C-105.047726 21.96916636 -106.4746862 20.62920514 -108 19 C-80.9827267 -6.48930412 -34.31425351 -10.09810968 0 0 Z " fill="#EC0923" transform="translate(352,99)"/>
<path d="M0 0 C5.55985486 -0.56376151 8.25456364 0.83851818 12.609375 4.3359375 C14.10679199 5.64874143 15.59245898 6.97564861 17.046875 8.3359375 C15.66315084 12.07879794 14.11334543 14.74351081 11.046875 17.3359375 C7.44322313 17.94205632 4.15555163 18.08083627 0.52099609 18.09448242 C-7.2205086 18.17255225 -12.84021257 20.22302507 -18.390625 25.7734375 C-23.6265295 34.36032088 -24.79383422 41.3074775 -23.953125 51.3359375 C-22.27090692 57.60878685 -18.28669282 61.82451385 -12.953125 65.3359375 C-8.17790388 67.98320862 -3.35012031 70.53358193 1.8359375 72.26953125 C4.046875 73.3359375 4.046875 73.3359375 4.9375 75.10546875 C5.05609375 75.77964844 5.1746875 76.45382813 5.296875 77.1484375 C5.50183594 78.20998047 5.50183594 78.20998047 5.7109375 79.29296875 C5.82179688 79.96714844 5.93265625 80.64132813 6.046875 81.3359375 C6.35625 82.8209375 6.35625 82.8209375 6.671875 84.3359375 C6.795625 84.9959375 6.919375 85.6559375 7.046875 86.3359375 C6.54414062 86.17867188 6.04140625 86.02140625 5.5234375 85.859375 C-3.34060035 83.98590328 -13.0782121 84.15532849 -20.9609375 88.83984375 C-25.08713373 91.93853621 -28.00707096 95.12786222 -28.953125 100.3359375 C-29.04383079 102.0006556 -29.08320786 103.66875783 -29.078125 105.3359375 C-29.08070312 106.1815625 -29.08328125 107.0271875 -29.0859375 107.8984375 C-28.96146211 110.18292694 -28.59189957 112.14585324 -27.953125 114.3359375 C-28.943125 114.42230469 -29.933125 114.50867188 -30.953125 114.59765625 C-41.91053253 115.56876572 -41.91053253 115.56876572 -50.953125 121.3359375 C-53.99105087 125.32415053 -55.7323155 128.93747735 -56.515625 133.8984375 C-55.20350198 141.91696709 -51.37169652 146.60856636 -44.953125 151.3359375 C-44.29054687 151.82449219 -43.62796875 152.31304687 -42.9453125 152.81640625 C-41.29509166 154.00897475 -39.62590916 155.17523012 -37.953125 156.3359375 C-38.01371094 156.90699219 -38.07429688 157.47804688 -38.13671875 158.06640625 C-38.22050781 158.87722656 -38.30429688 159.68804687 -38.390625 160.5234375 C-38.54144531 161.88275391 -38.54144531 161.88275391 -38.6953125 163.26953125 C-38.99867314 166.37905065 -38.99867314 166.37905065 -38.9609375 169.68359375 C-39.10039745 178.35999473 -39.10039745 178.35999473 -41.65625 181.28515625 C-43.765625 182.7734375 -43.765625 182.7734375 -45.94921875 184.08203125 C-50.72196308 187.0684853 -52.47036222 192.14626777 -53.953125 197.3359375 C-60.45017816 193.13196192 -64.53195864 186.08787831 -66.328125 178.6484375 C-67.70156058 171.71393432 -66.70218207 165.64918516 -64.890625 158.9609375 C-62.21343525 148.3140391 -63.17486007 140.66605476 -68.890625 131.08984375 C-69.9115625 129.51009766 -69.9115625 129.51009766 -70.953125 127.8984375 C-75.97141137 119.89084918 -79.263002 112.99991889 -77.953125 103.3359375 C-76.34154088 97.30549371 -74.48061329 92.68152251 -68.953125 89.3359375 C-66.34749081 88.03312041 -64.51844542 88.27139874 -61.60546875 88.34375 C-59.98415039 88.36888672 -59.98415039 88.36888672 -58.33007812 88.39453125 C-56.06427682 88.43827756 -53.79861574 88.49015939 -51.53320312 88.55078125 C-44.63115708 88.64057724 -39.36516939 87.92789618 -32.953125 85.3359375 C-32.42287958 76.29473325 -34.26301845 68.94017142 -36.953125 60.3359375 C-40.78133313 47.42099358 -39.71801605 34.39054479 -34.203125 22.1484375 C-28.21974853 11.14892211 -18.64960446 5.10260038 -6.953125 1.3359375 C-4.63156017 0.68113716 -2.36944083 0.40754382 0 0 Z " fill="#77A405" transform="translate(120.953125,151.6640625)"/>
<path d="M0 0 C5.77367034 4.98410859 9.5160355 12.05551323 13.515625 18.453125 C17.31108072 24.48120173 20.96343724 29.0698737 27.828125 31.578125 C33.604179 32.55511555 37.86378608 31.73566333 42.66796875 28.40234375 C45.36985593 26.12064155 47.80904649 23.61588476 50.265625 21.078125 C57.05270674 14.14314635 61.95426494 10.39004414 71.890625 9.890625 C84.97632611 10.3994409 95.9246109 16.14875675 106.80615234 23.06201172 C113.76965211 27.4310987 120.27645805 30.25860065 128.640625 29.328125 C129.71957031 29.21984375 130.79851562 29.1115625 131.91015625 29 C134.69247167 28.65504068 134.69247167 28.65504068 136.81640625 28.05078125 C142.87548877 26.62719099 149.6923581 26.58651894 155.328125 29.203125 C164.50035545 37.91674393 168.1834105 48.10775235 169.828125 60.578125 C169.168125 60.578125 168.508125 60.578125 167.828125 60.578125 C167.26544922 59.34835938 167.26544922 59.34835938 166.69140625 58.09375 C166.17964844 57.01609375 165.66789062 55.9384375 165.140625 54.828125 C164.64175781 53.76078125 164.14289063 52.6934375 163.62890625 51.59375 C161.1974332 47.52195565 158.4065571 45.36734105 154.203125 43.265625 C148.85723848 42.17664812 143.20472003 42.66102512 137.9296875 44.09375 C127.0840305 46.5934925 118.10019995 44.35503656 108.828125 38.578125 C108.03535156 38.07539062 107.24257813 37.57265625 106.42578125 37.0546875 C96.22701347 30.64015469 82.17351089 23.78046355 69.828125 25.578125 C62.64873756 27.80826694 58.04336831 32.10587662 52.94311523 37.47314453 C47.82950074 42.78117584 42.54642168 47.0109272 35.140625 48.140625 C27.19762839 46.79181425 20.96170103 42.88499031 16.23583984 36.38964844 C14.69628701 33.95772425 13.21696813 31.50117026 11.765625 29.015625 C6.32822171 19.56146076 6.32822171 19.56146076 -2.55859375 13.58203125 C-12.10185054 11.75115176 -20.76169561 13.18032844 -28.94921875 18.578125 C-35.82051273 24.76108197 -37.9360755 34.22083428 -39.70458984 42.97021484 C-40.75225468 47.90601808 -42.55705938 51.96330938 -46.171875 55.578125 C-55.10979804 56.50364957 -62.97828676 55.35351518 -71.609375 53.078125 C-86.75500256 49.02918057 -86.75500256 49.02918057 -101.44921875 52.4375 C-109.47893885 58.75068023 -110.98900766 67.10277349 -113.171875 76.578125 C-115.171875 75.578125 -115.171875 75.578125 -115.77734375 73.95703125 C-117.70619964 62.32660317 -115.90071182 52.41432584 -110.296875 42.140625 C-107.16280904 38.36131017 -103.81641667 36.12630556 -99.171875 34.578125 C-89.82246857 33.86178775 -81.39449093 35.31552406 -72.359375 37.578125 C-59.79284189 41.25831544 -59.79284189 41.25831544 -47.171875 39.578125 C-45.20257684 34.81898778 -44.01614767 29.97204118 -42.74316406 24.98681641 C-40.03773132 14.50521181 -37.48461287 6.86422306 -28.171875 0.578125 C-20.11845673 -3.72313248 -8.03175746 -4.79205697 0 0 Z " fill="#9BBE07" transform="translate(224.171875,47.421875)"/>
<path d="M0 0 C0.87398437 0.40992188 0.87398437 0.40992188 1.765625 0.828125 C5.65296131 2.61085248 9.08398381 2.42927633 13.328125 2.328125 C20.93628587 2.1612461 26.54667589 3.09882559 32.890625 7.328125 C33.4453125 9.7890625 33.4453125 9.7890625 33.765625 12.703125 C34.45978223 17.3229655 34.45978223 17.3229655 37.390625 20.953125 C38.87676987 21.77050468 40.37359208 22.56960854 41.890625 23.328125 C40.50415188 37.79487741 29.13818671 49.81123589 19.890625 60.328125 C19.3853125 60.90353027 18.88 61.47893555 18.359375 62.07177734 C9.94972352 71.47951578 9.94972352 71.47951578 4.515625 73.328125 C0.890625 73.328125 0.890625 73.328125 -1.859375 71.265625 C-2.601875 70.29625 -3.344375 69.326875 -4.109375 68.328125 C-5.223125 67.090625 -5.223125 67.090625 -6.359375 65.828125 C-8.17761741 63.23063584 -8.75281636 61.4480131 -9.109375 58.328125 C-10.305625 58.245625 -11.501875 58.163125 -12.734375 58.078125 C-18.19201626 57.38386675 -21.47042875 54.87847957 -25.421875 51.140625 C-27.73529141 47.28493098 -28.32100524 43.80491844 -28.109375 39.328125 C-26.56228367 35.58253546 -24.55627463 33.4407409 -21.109375 31.328125 C-20.449375 31.328125 -19.789375 31.328125 -19.109375 31.328125 C-19.7590625 30.15056641 -19.7590625 30.15056641 -20.421875 28.94921875 C-26.13910224 18.16324605 -26.13910224 18.16324605 -25.109375 12.328125 C-23.40376775 7.12153446 -21.23253917 3.92267838 -17.109375 0.328125 C-12.47710555 -1.98800973 -4.86099013 -1.54831537 0 0 Z " fill="#912614" transform="translate(121.109375,356.671875)"/>
<path d="M0 0 C0.07476562 0.95519531 0.14953125 1.91039062 0.2265625 2.89453125 C1.80056646 18.37223685 8.91014986 27.65079263 19 39 C26.75631333 47.8007278 26.75631333 47.8007278 27.3125 52.8203125 C26.9332329 56.67935523 25.70213721 59.3998032 24 62.875 C23.443125 64.02742188 22.88625 65.17984375 22.3125 66.3671875 C21.879375 67.23601562 21.44625 68.10484375 21 69 C20.09378906 68.6390625 19.18757813 68.278125 18.25390625 67.90625 C10.31619512 64.88236005 3.95832121 63.01765737 -4.53515625 64.41796875 C-11.69922251 65.45907766 -16.43963662 64.13588463 -23.0546875 61.2265625 C-28.22983321 59.07139572 -32.72668779 58.88529615 -38.3125 58.9375 C-39.56675781 58.94652344 -40.82101563 58.95554687 -42.11328125 58.96484375 C-43.06589844 58.97644531 -44.01851563 58.98804688 -45 59 C-45.51829786 42.45286102 -43.64849739 28.9440621 -31.75 16.1875 C-24.10568793 9.19014529 -10.83315593 0 0 0 Z " fill="#F6602C" transform="translate(127,271)"/>
<path d="M0 0 C0.68964844 -0.00322266 1.37929687 -0.00644531 2.08984375 -0.00976562 C6.10271662 0.03243476 9.35152287 0.34258421 12.875 2.3125 C14.67578125 4.2578125 14.67578125 4.2578125 16.1875 6.4375 C16.69925781 7.16195312 17.21101563 7.88640625 17.73828125 8.6328125 C18.11339844 9.18710938 18.48851562 9.74140625 18.875 10.3125 C18.58625 10.87839844 18.2975 11.44429687 18 12.02734375 C15.04773239 18.02413733 12.87698265 23.49669946 12.25 30.1875 C11.47449678 34.87995169 11.47449678 34.87995169 9.0234375 36.6484375 C7.34547559 37.28792136 5.64087213 37.85972937 3.921875 38.37890625 C-10.69724543 42.85835469 -21.37308529 51.2416742 -28.70263672 64.52758789 C-30.06367967 67.09290633 -31.20511525 69.55284575 -32.125 72.3125 C-40.23009063 69.41067743 -47.3490585 63.58678885 -51.375 55.9375 C-53.0183907 50.18563256 -52.46787966 46.38657069 -49.625 41.1875 C-46.23018228 35.90220322 -42.22156089 32.65535606 -36.2421875 30.6953125 C-33.58817523 30.21543574 -31.07044192 30.21791141 -28.375 30.25 C-27.39015625 30.25902344 -26.4053125 30.26804687 -25.390625 30.27734375 C-24.26914063 30.29474609 -24.26914063 30.29474609 -23.125 30.3125 C-23.61033203 29.47138672 -23.61033203 29.47138672 -24.10546875 28.61328125 C-26.37852277 23.48366893 -25.55179643 17.81884034 -24.0625 12.5625 C-18.65923826 3.49896419 -10.27386735 -0.24276624 0 0 Z " fill="#EBB006" transform="translate(116.125,235.6875)"/>
<path d="M0 0 C-0.33 0.66 -0.66 1.32 -1 2 C-3.53811339 2.83197066 -6.04782788 3.56150855 -8.625 4.25 C-29.83281437 10.25066065 -49.10251375 20.20334425 -67 33 C-67.6506543 33.46132324 -68.30130859 33.92264648 -68.97167969 34.39794922 C-77.39435695 40.40862248 -85.24001744 46.76604391 -92.66040039 53.98754883 C-96.80834493 58 -96.80834493 58 -99 58 C-98.71125 57.01644531 -98.4225 56.03289062 -98.125 55.01953125 C-94.77362445 42.79484779 -92.4996125 28.45306455 -96 16 C-72.28515509 -6.58556658 -29.76068183 -13.56349659 0 0 Z " fill="#F6602D" transform="translate(356,119)"/>
<path d="M0 0 C0.89055347 22.48647524 0.89055347 22.48647524 -5.765625 31.3515625 C-8 33 -8 33 -10.90234375 32.93359375 C-14.10334419 31.96885339 -16.67608378 30.74179478 -19.5625 29.0625 C-25.45490078 25.66078778 -30.04074933 23.17432619 -37 24 C-42.4176399 26.36387658 -46.52597651 29.53653146 -49 35 C-50.71809738 43.42470557 -47.3893266 49.97209899 -43 57 C-40.61920841 60.4292605 -38.15065347 63.78932283 -35.6081543 67.1003418 C-32 71.8120788 -32 71.8120788 -32 74 C-39.03451582 75.45541707 -39.03451582 75.45541707 -43.3125 73.4375 C-47.03108672 70.06482832 -48.56159345 66.84466142 -49.71484375 61.9921875 C-51.38880192 58.09476515 -52.95368559 57.59871966 -56.8125 56 C-62.74683113 53.29610812 -66.04405005 50.91189991 -69 45 C-69.76519013 38.25127392 -69.16801203 32.51911074 -65 27 C-60.21001657 23.18756421 -56.63422226 21.98536804 -50.625 21.8125 C-45.91072409 21.4714055 -45.91072409 21.4714055 -42.4375 18.25 C-42.08816406 17.71503906 -41.73882812 17.18007812 -41.37890625 16.62890625 C-37.95413409 12.58321222 -31.92461489 10.6415383 -27 9 C-26.443125 8.071875 -25.88625 7.14375 -25.3125 6.1875 C-19.94667289 -1.20864007 -8.45312673 -4.22656337 0 0 Z " fill="#902713" transform="translate(202,162)"/>
<path d="M0 0 C5.77367034 4.98410859 9.5160355 12.05551323 13.515625 18.453125 C17.31108072 24.48120173 20.96343724 29.0698737 27.828125 31.578125 C33.604179 32.55511555 37.86378608 31.73566333 42.66796875 28.40234375 C45.36985593 26.12064155 47.80904649 23.61588476 50.265625 21.078125 C57.05270674 14.14314635 61.95426494 10.39004414 71.890625 9.890625 C84.97632611 10.3994409 95.9246109 16.14875675 106.80615234 23.06201172 C113.76965211 27.4310987 120.27645805 30.25860065 128.640625 29.328125 C129.71957031 29.21984375 130.79851562 29.1115625 131.91015625 29 C134.69247167 28.65504068 134.69247167 28.65504068 136.81640625 28.05078125 C142.87548877 26.62719099 149.6923581 26.58651894 155.328125 29.203125 C159.97355132 33.61628 163.18134736 37.29042855 164.828125 43.578125 C164.10625 42.835625 163.384375 42.093125 162.640625 41.328125 C155.93064806 34.76725866 152.59405373 33.36549976 143.34375 33.40625 C140.15058925 33.56236008 137.2614131 33.98080123 134.140625 34.640625 C122.76868061 36.84956384 115.47276698 33.2079577 105.75830078 27.66552734 C93.47833912 20.74737034 81.33305154 14.46506163 66.828125 16.578125 C60.37261571 18.90665181 55.89585874 23.35407424 51.203125 28.203125 C45.72446114 33.85876817 41.33867783 37.56648981 33.328125 38.140625 C26.55229055 37.77971286 21.92119132 33.97323851 17.390625 29.203125 C13.70528069 24.8009517 10.88671055 19.86693855 8.11157227 14.85791016 C5.16463284 9.66705714 1.58194314 5.69177248 -4.171875 3.578125 C-14.7126814 2.4492217 -22.56727907 3.8906515 -30.984375 10.265625 C-37.83297306 16.68913766 -39.24854379 26.11019115 -41.24658203 34.92651367 C-42.34975357 39.51935673 -43.18795351 42.65913637 -47.171875 45.578125 C-55.40123215 48.32124405 -63.3041988 45.74308735 -71.359375 43.578125 C-87.10849039 39.20464024 -87.10849039 39.20464024 -102.671875 42.390625 C-108.13558812 46.4795974 -112.00339563 53.89588358 -113.171875 60.578125 C-113.39476001 63.16469173 -113.58501885 65.73765278 -113.734375 68.328125 C-113.77755859 69.02550781 -113.82074219 69.72289063 -113.86523438 70.44140625 C-113.97077096 72.15344422 -114.0717741 73.86576061 -114.171875 75.578125 C-117.67107554 69.99340094 -116.68998319 62.89651755 -116.171875 56.578125 C-114.39142833 49.01581543 -111.42331552 42.03329437 -105.109375 37.265625 C-95.12777071 31.5315119 -82.87653744 34.94438551 -72.359375 37.578125 C-59.79284189 41.25831544 -59.79284189 41.25831544 -47.171875 39.578125 C-45.20257684 34.81898778 -44.01614767 29.97204118 -42.74316406 24.98681641 C-40.03773132 14.50521181 -37.48461287 6.86422306 -28.171875 0.578125 C-20.11845673 -3.72313248 -8.03175746 -4.79205697 0 0 Z " fill="#8BB503" transform="translate(224.171875,47.421875)"/>
<path d="M0 0 C0.66 5.61 1.32 11.22 2 17 C0.39125 17.804375 -1.2175 18.60875 -2.875 19.4375 C-13.31269821 25.20039901 -21.34985558 32.35753191 -25 44 C-25.84800138 49.01458827 -25.90559687 53.90223082 -26 59 C-32.27 59 -38.54 59 -45 59 C-45.39739345 42.30947511 -43.7487341 29.05152743 -31.75 16.1875 C-24.10568793 9.19014529 -10.83315593 0 0 0 Z " fill="#F30C1B" transform="translate(127,271)"/>
<path d="M0 0 C1.50854058 2.89693192 2.7234872 5.82016026 3.875 8.875 C7.25907164 17.28613458 13.63578864 26.81789432 22 31 C22.34581102 32.82068024 22.60095752 34.65888306 22.8125 36.5 C23.7204745 42.60158864 25.75579497 46.84254585 29 52 C29.68135804 53.32588591 30.352585 54.65721333 31 56 C30.07767578 56.68835938 30.07767578 56.68835938 29.13671875 57.390625 C28.32847656 58.00421875 27.52023438 58.6178125 26.6875 59.25 C25.88699219 59.85328125 25.08648437 60.4565625 24.26171875 61.078125 C22.11450388 62.90270136 20.58398701 64.68297046 19 67 C8.42857395 62.61793346 0.28988619 50.09871276 -4.3125 40.16796875 C-7.96983125 30.68176582 -8.92937833 20.04502544 -5.1875 10.4375 C-4.48710789 8.94449332 -3.76031413 7.46340031 -3 6 C-2.69191406 5.35933594 -2.38382813 4.71867187 -2.06640625 4.05859375 C-1.40401259 2.6926049 -0.70705937 1.3434128 0 0 Z " fill="#F8C800" transform="translate(44,320)"/>
<path d="M0 0 C2.12887266 1.53447455 3.27299298 3.00348948 4.72265625 5.17578125 C6.67190049 7.9595643 9.10776942 9.27843418 12 11 C10.56489177 14.50044917 8.89080447 16.04169396 5.8125 18.1875 C-2.62077863 24.56322108 -7.06950708 32.30961424 -11 42 C-19.10509063 39.09817743 -26.2240585 33.27428885 -30.25 25.625 C-31.8933907 19.87313256 -31.34287966 16.07407069 -28.5 10.875 C-25.12662922 5.62309337 -21.12465551 2.31954022 -15.15625 0.41015625 C-10.09819695 -0.55197341 -5.09229233 -0.78831991 0 0 Z " fill="#F7C700" transform="translate(95,266)"/>
<path d="M0 0 C-1.41539063 0.12955078 -1.41539063 0.12955078 -2.859375 0.26171875 C-15.49651932 1.6446994 -25.92467006 4.57874941 -35 14 C-35.55429688 14.54527344 -36.10859375 15.09054688 -36.6796875 15.65234375 C-45.53017946 25.00920714 -46.44778796 36.72686394 -46.29296875 48.94140625 C-46.02952653 56.00352995 -44.1735289 62.30489639 -42 69 C-39.27846991 78.12967187 -39.27846991 78.12967187 -40 83 C-42.46784237 86.02057678 -45.29496829 87.76498943 -49 89 C-50.92288282 89.03656349 -52.84714551 89.01402518 -54.76953125 88.95703125 C-55.90583984 88.93576172 -57.04214844 88.91449219 -58.21289062 88.89257812 C-60.60120784 88.83944681 -62.9892924 88.77445575 -65.37695312 88.69726562 C-74.02894589 88.49330939 -74.02894589 88.49330939 -81 93 C-85.15960878 98.41638898 -85.73202066 105.03308106 -85.515625 111.6640625 C-84.62140833 117.44937335 -81.99522661 122.03957947 -79 127 C-78.45085937 127.92296875 -77.90171875 128.8459375 -77.3359375 129.796875 C-76.33918417 131.45649384 -75.32814731 133.10770145 -74.296875 134.74609375 C-70.2758687 141.73440892 -69.78768638 148.96854808 -71.67578125 156.8046875 C-71.94777344 157.69414062 -72.21976563 158.58359375 -72.5 159.5 C-75.49827368 169.48468174 -74.6989309 178.67720099 -70 188 C-68.46466208 190.24863939 -66.90731285 192.03970624 -65 194 C-65.33 194.66 -65.66 195.32 -66 196 C-73.35523958 189.38854869 -78.38892406 181.76945163 -79.30078125 171.66796875 C-79.33623946 161.13688061 -79.33623946 161.13688061 -77.5 156.4375 C-74.87662482 149.54795645 -74.58526657 142.5083763 -77.359375 135.62890625 C-79.11768382 132.32624211 -81.00292063 129.16337372 -83 126 C-84.12686352 124.10527373 -85.25203861 122.20954158 -86.375 120.3125 C-86.85710937 119.52488281 -87.33921875 118.73726563 -87.8359375 117.92578125 C-91.29699371 112.19993993 -90.4762872 105.49360578 -90 99 C-88.68061814 93.99388828 -86.07648422 90.27795494 -82.02050781 86.99902344 C-77.6214762 84.82395851 -72.46121714 85.67772487 -67.6875 85.9375 C-59.68959549 86.34898296 -52.91072502 86.57417734 -46 82 C-43.91618394 77.83236787 -44.84863362 73.5417911 -46.05859375 69.2109375 C-46.50745719 67.92847054 -46.96723278 66.64977395 -47.4375 65.375 C-52.08295206 52.41457913 -54.15942619 35.07738754 -48.25390625 22.17578125 C-41.75412598 10.89734633 -32.84771978 3.46969403 -20.8125 -1.25 C-14.15903926 -2.55887752 -6.01688403 -3.68918437 0 0 Z " fill="#7CA508" transform="translate(124,149)"/>
<path d="M0 0 C1.02817739 1.3117275 2.03205242 2.64321878 3 4 C1.96166016 3.91298828 1.96166016 3.91298828 0.90234375 3.82421875 C-10.3522055 3.30523427 -21.96199918 6.46260317 -31.1328125 13.2109375 C-39.08501766 20.83041441 -40.98964229 30.28089731 -41.30859375 40.87109375 C-41.38585303 44.66472227 -41.4377179 48.45776458 -41.47851562 52.25195312 C-41.66192814 60.82760658 -42.05131122 71.17002399 -48 78 C-51.79596504 79.34967646 -53.53191329 79.1766365 -57.3125 77.75 C-60 76 -60 76 -61 73 C-59.906875 72.938125 -58.81375 72.87625 -57.6875 72.8125 C-53.95380486 72.37864736 -53.95380486 72.37864736 -52.1875 69.875 C-48.39178625 60.68537724 -48.6288706 51.96845318 -48.52148438 42.109375 C-48.25173777 29.50365583 -47.0863593 17.46424192 -38 8 C-28.91569809 0.6080285 -11.15386551 -6.75991849 0 0 Z " fill="#88B108" transform="translate(253,124)"/>
<path d="M0 0 C6.99294222 3.14375692 11.87487938 9.12473464 15 16 C15.51938196 21.07286765 14.22008091 24.34233481 12 28.875 C11.1646875 30.60363281 11.1646875 30.60363281 10.3125 32.3671875 C9.879375 33.23601562 9.44625 34.10484375 9 35 C8.12859375 34.6390625 7.2571875 34.278125 6.359375 33.90625 C-1.69964404 30.76637245 -8.22387516 29.27669301 -17 30 C-17.65450728 21.29141702 -15.88631663 15.47876719 -11.1875 8.1875 C-8.34729038 5.34729038 -5.59593557 3.79796778 -2 2 C-1.34 2 -0.68 2 0 2 C0 1.34 0 0.68 0 0 Z " fill="#F30C1B" transform="translate(139,305)"/>
<path d="M0 0 C4.98028376 4.56526012 8.57396184 8.80471379 9.5 15.75 C9 19 9 19 7.265625 20.71484375 C4.55191934 22.25416989 3.30968888 22.22662986 0.25 21.8125 C-0.62914062 21.69648438 -1.50828125 21.58046875 -2.4140625 21.4609375 C-4.69672643 21.05405783 -6.88979411 20.54710161 -9.125 19.9375 C-14.70779741 18.58682321 -18.91873592 17.95936796 -24.25 20.625 C-30.20149637 25.76492868 -33.29256995 32.58580953 -34.30493164 40.33374023 C-34.43585941 42.68919781 -34.46696108 45.01618162 -34.4375 47.375 C-34.43049072 48.6134668 -34.43049072 48.6134668 -34.42333984 49.87695312 C-34.23202725 57.80942655 -32.42211741 64.36682389 -28 71 C-28.33 71.99 -28.66 72.98 -29 74 C-36.45579004 67.07676639 -40.04439559 56.7898208 -41.4453125 46.8359375 C-41.49931865 44.15877568 -41.33848691 41.65487929 -41 39 C-40.85498047 37.63294922 -40.85498047 37.63294922 -40.70703125 36.23828125 C-39.59987691 28.3785816 -37.15256732 21.00593628 -31.3125 15.4375 C-26.29464028 12.3182899 -21.820696 12.65140679 -16 13 C-13.66359824 13.65583207 -11.33010909 14.32215008 -9 15 C-5.64714542 15.30988504 -2.32798695 15.56581862 1 15 C3.35726507 12.12997278 3.35726507 12.12997278 2.75 8.625 C2.10626078 5.51359378 1.30944157 2.88077146 0 0 Z " fill="#88B008" transform="translate(171,233)"/>
<path d="M0 0 C0.78310547 0.50660156 0.78310547 0.50660156 1.58203125 1.0234375 C6.08674535 3.75308913 9.40333019 5.17885479 14.6875 5.5625 C17.5 5.96484375 17.5 5.96484375 20 7 C21.98468336 9.83969204 23.21024676 12.68008155 24.53125 15.87890625 C26.75016828 20.5941076 30.15081384 23.59400372 34 27 C35.00676414 27.99318979 36.0092444 28.99084028 37 30 C26.12159716 30.65270417 18.52187854 30.14944845 9.75390625 23.2265625 C3.00665693 16.76405948 1.65021494 8.84819195 0 0 Z " fill="#F8C601" transform="translate(69,410)"/>
<path d="M0 0 C-2.41123438 1.20561719 -3.63835356 0.97443686 -6.3125 0.8125 C-16.50186055 0.73898369 -27.07470728 4.5965932 -35 11 C-45.25483202 21.73281148 -44.42733229 37.69071275 -44.52734375 51.53515625 C-44.67998078 60.03793679 -45.11555124 67.20467268 -50.375 74.125 C-53 76 -53 76 -55.625 75.875 C-56.40875 75.58625 -57.1925 75.2975 -58 75 C-58.99 74.67 -59.98 74.34 -61 74 C-60.505 73.01 -60.505 73.01 -60 72 C-59.071875 71.979375 -58.14375 71.95875 -57.1875 71.9375 C-53.93534406 71.35638643 -53.93534406 71.35638643 -52.75 69.078125 C-50.07631824 63.06234104 -48.88780739 57.95870134 -48.75390625 51.36328125 C-48.72103516 50.06326172 -48.68816406 48.76324219 -48.65429688 47.42382812 C-48.60716758 45.37480263 -48.56275673 43.32579734 -48.52319336 41.27661133 C-48.26425509 28.4676951 -47.81470251 16.68308647 -38.14453125 7.17578125 C-27.36370033 -1.36711272 -12.81464563 -6.27656113 0 0 Z " fill="#78A305" transform="translate(250,122)"/>
<path d="M0 0 C4.010163 3.67598275 6.75923876 7.00137877 9 12 C9 17.20103549 7.16024003 21.28597375 4.9375 25.88671875 C2.1378434 32.19761134 2.29110015 39.3780131 4 46 C1.1331878 44.5665939 -0.65715574 43.6704249 -2.140625 40.76953125 C-5.23877958 30.78502398 -2.52211841 21.04423682 2 12 C2.25785684 7.44452917 1.99851462 4.1219364 0 0 Z " fill="#87B008" transform="translate(154,318)"/>
<path d="M0 0 C-2.91315669 0.85074488 -4.59874555 0.96008363 -7.75 0.75 C-12.81640756 0.70273874 -16.24501224 2.71023196 -20 6 C-23.27231263 9.78705843 -24.63702166 13.82477878 -24.41015625 18.875 C-23.76440381 22.22061267 -22.33583685 25.10515034 -20.77734375 28.1171875 C-20.39255859 29.04917969 -20.39255859 29.04917969 -20 30 C-20.33 30.66 -20.66 31.32 -21 32 C-21.98280415 30.39805929 -22.96111717 28.79336258 -23.9375 27.1875 C-24.48277344 26.29417969 -25.02804688 25.40085938 -25.58984375 24.48046875 C-28.44732978 19.4541429 -28.63537932 14.65664089 -28 9 C-21.81521194 -3.36957611 -11.81291031 -4.97385697 0 0 Z " fill="#789F05" transform="translate(180,188)"/>
</svg>
